<?xml version="1.0" encoding="utf-8"?>
<!-- Generator: Adobe Illustrator 24.0.1, SVG Export Plug-In . SVG Version: 6.00 Build 0)  -->
<svg version="1.1" id="Слой_1" xmlns="http://www.w3.org/2000/svg" xmlns:xlink="http://www.w3.org/1999/xlink" x="0px" y="0px"
	 viewBox="0 0 100 100" style="enable-background:new 0 0 100 100;" xml:space="preserve">
<style type="text/css">
	.st0{fill:#FFFFFF;}
</style>
<g>
	<path class="st0" d="M48.3,99.1c-2.3-0.4-4.5-1-6.8-1.5c-0.7-0.1-1.5-0.3-2.2-0.4c-0.5,0-0.6-0.3-0.7-0.7
		c-1.3-6.4-2.6-12.7-4.1-19.1c-1.5-6.6-3.4-13.3-5.6-19.6c-0.1-0.3-0.1-0.6-0.1-1c0-1.5-0.1-3-0.5-4.4c-0.5-1.8-1.4-3.2-2.9-4
		c-0.2-0.1-0.5-0.3-0.6-0.6c-2.1-2.8-4.6-4.1-7.7-4.3c-3.1-0.1-6.1-0.1-9.3-0.3c-0.5,0-0.7-0.1-0.7-0.7C6.2,29.9,5,17.5,4,5.3
		C4,5,3.8,4.7,4.2,4.5c4.1-0.4,8-1.2,12.2-1.2c1.9,0,3.7,0.3,5.6,0.6c0.3,0,0.6,0.1,0.8,0.6c6.8,10.6,12.6,22,17.3,34.1
		c0.2,0.4,0.1,0.7-0.1,1.2c-0.5,0.7-0.6,1.3-0.2,2.2c0.3,1,0.5,1.9,0.1,3c-0.5,1.3-0.1,2.8,0.6,4.1c0.2,0.6,0.5,1,0.8,1.5
		c0.8,1,1.2,2.4,1.5,3.5c4.5,14.8,8,30,11,45.2c0.1,0.6,0,0.7-0.5,0.6c-0.8-0.3-1.6-0.4-2.4-0.6c-0.5-0.1-0.6-0.3-0.7-0.9
		c-1.3-6.6-2.7-13.3-4.2-19.8c-2.1-8.9-4.4-17.7-7.4-26.3c-1.5-4.3-3.2-8.4-5.3-12.3c-0.3-0.7-0.7-1-1.4-0.7
		c-0.2,0.1-0.5,0.1-0.7,0.1c0,0.1,0,0.1,0.1,0.3c3.8,6.9,6.6,14.5,8.9,22.2c3.4,11.1,5.7,22.3,7.9,33.5
		C47.8,96.7,48.1,97.9,48.3,99.1z M28.7,29.6c2-5.5-0.3-12.3-5.1-15.1c-4.9-2.8-10.4-0.6-12.4,5c-2,5.5,0.3,12.3,5,15.1
		C21,37.5,26.6,35.3,28.7,29.6z"/>
	<path class="st0" d="M23.5,4.4c1.5,0.1,2.9,0.1,4.2,0.3c15.3,0.9,30.6,1.8,45.9,2.7c0.5,0,0.7,0.1,0.9,0.7
		c2.9,7.4,3.8,14.9,3.4,22.6c-0.1,1-0.2,2.1-0.2,3.2c0,0.4-0.2,0.6-0.6,0.7c-4.4,0.6-8.8,1.2-13.2,1.8c-7.3,1-14.7,1.9-22,3
		c-0.3,0-0.6,0-0.7-0.4C36.4,27,30.8,15.8,24,5.1C23.8,4.8,23.7,4.7,23.5,4.4z M67.8,21.5c0.1-0.6-0.1-1-0.6-1.3c-0.1,0-0.3,0-0.6,0
		c-8.2,0.4-16.5,0.9-24.7,1.3c-0.1,0-0.2,0-0.5,0c-0.5,0.1-0.6,0.4-0.6,0.9s0.3,0.7,0.7,0.9c0.2,0,0.3,0,0.6,0
		c5.1-0.3,10.2-0.6,15.3-0.9c3.1-0.1,6.3-0.3,9.4-0.4C67.2,22.1,67.7,22,67.8,21.5z"/>
	<path class="st0" d="M78.3,34.4c1.3-9.2,0.6-18.2-3.1-26.9c0.1-0.1,0.3-0.1,0.5-0.1C82.3,7.2,88.2,5,93.3,0.3
		c0.5-0.4,0.6-0.3,0.9,0.3c2.4,4.6,3.8,9.6,4.8,14.8c1.2,6.6,1.4,13.1,0.3,19.6c-0.2,1.2-0.5,2.2-0.8,3.4c-0.1,0.3-0.1,0.4-0.5,0.3
		c-6.3-3.8-12.8-5.2-19.4-4.1C78.6,34.4,78.6,34.4,78.3,34.4z"/>
	<path class="st0" d="M3,7.8C4,18.1,4.9,28.3,5.7,38.5C2.3,33.9,0.6,28.8,0.1,23C-0.4,16.7,0.9,10.9,3,7.8z"/>
	<path class="st0" d="M23.8,49.3c0.6,0,1.2-0.1,1.7-0.1c0.2,0,0.5,0.3,0.6,0.4c1,1.2,1.5,2.7,1.7,4.3c0.3,1.9,0.2,2.1-1.4,1.9
		c-0.2,0-0.3-0.1-0.3-0.4C25.8,53.3,25,51.2,23.8,49.3z"/>
	<path class="st0" d="M42.5,49.9c-0.1,0.3-0.3,0.6-0.6,0.7c-0.3,0.1-0.6,0.1-0.8-0.3c-0.7-1.3-1.3-2.7-1.3-4.3
		c0-0.6,0.1-0.7,0.6-0.7c1.2,0,1.6,0.4,1.9,1.8c0.1,0.6,0.1,1.2,0.2,1.9C42.6,49.3,42.6,49.6,42.5,49.9z"/>
	<path class="st0" d="M46.9,64.2c-0.1,0.3-0.5,0.3-0.7,0.3s-0.3-0.1-0.3-0.4c-0.3-1.2-0.7-2.4-1-3.5c0-0.1-0.2-0.4-0.1-0.6
		c0.1-0.1,0.3,0,0.6,0s0.3,0.3,0.5,0.6c0.3,1,0.7,2.2,1,3.2C46.9,64.1,46.9,64.2,46.9,64.2z"/>
	<path class="st0" d="M47.2,67.5c0.2,0.1,0.3,0.3,0.5,0.6c0.3,1,0.7,2.1,1,3.1c0.1,0.3,0.1,0.6-0.2,0.7c-0.2,0-0.6,0.1-0.7-0.4
		c-0.2-1.2-0.6-2.4-0.9-3.5c0-0.1-0.2-0.3,0-0.4C47,67.3,47.1,67.5,47.2,67.5z"/>
	<path class="st0" d="M16.7,33.5c-4.3-2.5-6.4-8.4-4.6-13.4s6.6-6.9,11-4.6c4.3,2.5,6.4,8.4,4.6,13.4C25.9,33.9,21,36,16.7,33.5z
		 M26.7,23.9c-0.6-0.3-0.9-0.4-1.4-0.7c-0.6-0.1-0.9-0.6-1.2-1.2c-1-2.5-3.5-3.7-5.6-3.1c-2.2,0.6-3.6,3-3.5,5.6
		c0.1,2.7,1.9,5,4.1,5.6c2.2,0.6,4.5-0.6,5.2-3.1c0.3-1.5,1-2.2,2.1-3C26.5,24.2,26.5,24,26.7,23.9z"/>
</g>
</svg>
