<?xml version="1.0" encoding="utf-8"?>
<!-- Generator: Adobe Illustrator 24.0.1, SVG Export Plug-In . SVG Version: 6.00 Build 0)  -->
<svg version="1.1" id="Слой_1" xmlns="http://www.w3.org/2000/svg" xmlns:xlink="http://www.w3.org/1999/xlink" x="0px" y="0px"
	 viewBox="0 0 100 100" style="enable-background:new 0 0 100 100;" xml:space="preserve">
<style type="text/css">
	.st0{fill:#FFFFFF;}
</style>
<g>
	<path class="st0" d="M99.1,35.1c-0.2,0-0.5,0-0.7,0c-31.9,0-63.8,0-95.7,0c-0.7,0-0.7,0-0.7-0.7C2,27.2,1.9,20,2,12.8
		C2.1,9.9,3,7.4,4.7,5.1c0.9-1.2,2-2.3,3.4-3c1-0.5,2-0.8,3-0.8c10.1-0.2,20.2-0.1,30.2-0.1c8.3,0,16.5,0,24.8,0
		c8.2,0,16.3,0,24.5,0c0.9,0,1.6,0.4,2.3,0.8c0.4,0.2,0.9,0.5,1.3,0.8c1.4,1,2.5,2.4,3.3,3.9c0.6,1.1,1,2.3,1.4,3.4
		c0.1,0.4,0.2,0.7,0.2,1.1c0,5.5,0,10.9,0.1,16.4c0,0.3,0,0.5,0.1,0.8C99.1,30.6,99.1,32.9,99.1,35.1z"/>
	<path class="st0" d="M99.1,43.1C99,43.7,99,44.3,99,44.8c0,1.7,0,3.3-0.2,5c-0.2,1.8-1,3.4-1.9,4.9c-0.6,1-1.4,1.9-2.4,2.6
		c-0.3,0.2-0.7,0.4-1,0.6c-0.6,0.3-1.2,0.6-1.8,0.9c-0.9,0.4-1.9,0.5-2.9,0.5c-11.8,0.1-23.5,0.1-35.3,0.1c-5.6,0-11.2,0-16.8,0
		c-8.7,0-17.4,0-26.2,0c-0.6,0-1-0.3-1.6-0.5c-2-0.8-3.6-2.1-4.8-3.9C2.7,52.6,2,49.9,2,47c0-2.2,0-4.5,0-6.7c0-0.3,0.1-0.4,0.4-0.4
		c0.2,0,0.3,0,0.5,0c31.8,0,63.7,0,95.5,0c0.2,0,0.5,0,0.7,0C99.1,41,99.1,42,99.1,43.1z M38.4,44.9c-6.4,0-12.7,0-19.1,0
		c-2.6,0-5.1,0-7.7,0c-0.2,0-0.4-0.1-0.5,0.1c-0.6,0.7-1.1,1.3-1.1,2.3c0,1.4,0.7,2.2,2.1,2.3c2.4,0.2,4.9,0,7.3,0.2
		c1.6,0.1,3.2,0,4.8,0c11.3-0.1,22.6,0.2,33.9-0.1c2.2-0.1,4.5,0,6.7-0.1c0.4,0,0.8-0.1,1.1-0.5c0.8-0.9,0.8-1.9,0.4-3
		c-0.3-0.7-0.8-1.2-1.8-1.2C55.9,44.9,47.2,44.9,38.4,44.9z M86.9,44.9c-0.8,0-1.7,0-2.5,0c-0.2,0-0.3,0-0.5,0.1
		c-0.9,1-1.3,2.1-0.8,3.5c0.2,0.5,0.6,1,1.2,1c0.3,0,0.7,0,1,0.1c1.3,0.3,2.6,0.1,4-0.1c0.6-0.1,1-0.5,1.3-1.1
		c0.5-1.2,0.3-2.3-0.6-3.2c-0.2-0.3-0.5-0.4-0.8-0.4C88.5,44.9,87.7,44.9,86.9,44.9z M74.8,44.9c-0.8,0-1.7,0-2.5,0
		c-0.1,0-0.3,0-0.4,0.1c-0.8,0.8-1.3,1.8-1,3c0.3,1.3,0.7,1.5,1.8,1.6c0.2,0,0.4,0,0.6,0c1.3,0.3,2.6,0.1,4-0.1c0.6-0.1,1-0.5,1.2-1
		c0.5-1.2,0.3-2.3-0.5-3.2c-0.2-0.3-0.5-0.4-0.8-0.4C76.4,44.9,75.6,44.9,74.8,44.9z"/>
	<path class="st0" d="M74.8,76.9c0-1.6,0-3.3,0-4.9c0-1.9,0.1-3.7,0.1-5.6c0-0.8,0.4-1.3,0.9-1.7c0.9-0.8,2.1-0.5,2.7,0.5
		c0.2,0.3,0.1,0.6,0.2,0.9c0.2,3.4,0.2,6.9,0.3,10.4c0,0.2,0,0.3,0,0.6c0.5-0.3,0.9-0.6,1.3-0.8c0.7-0.5,1.4-1,2.1-1.5
		c1-0.7,2.1-1.4,3.1-2.1c0.4-0.2,0.8-0.5,1.2-0.7c1.1-0.7,2.2,0,2.6,1.2c0.4,1.1,0.1,2.1-0.8,2.8c-1.1,0.8-2.2,1.6-3.3,2.4
		c-1.1,0.8-2.3,1.6-3.4,2.4c-0.6,0.4-0.6,0.6,0,1c1.4,1,2.9,2,4.3,3.1c0.9,0.7,1.9,1.4,2.7,2.1c0.7,0.6,1,2,0.3,3
		c-0.1,0.2-0.2,0.4-0.4,0.5c-0.5,0.4-0.9,0.7-1.6,0.4c-1.1-0.5-2-1.1-3-1.8c-0.7-0.5-1.4-0.9-2-1.4c-0.8-0.5-1.6-1.1-2.4-1.6
		c-0.1,0-0.1-0.1-0.2-0.1c-0.4-0.2-0.5-0.2-0.5,0.3c-0.1,1.5-0.1,2.9-0.1,4.4c0,2,0,3.9,0,5.9c0,0.8-0.6,1.2-1.2,1.6
		c-0.6,0.3-1.3,0.2-1.9-0.2c-0.6-0.4-0.8-1.1-0.8-1.8c-0.2-1.5-0.1-3.1-0.1-4.7c0-1.8,0-3.6,0-5.5c0-0.4-0.1-0.5-0.4-0.3
		c-1,0.7-2.1,1.5-3.1,2.2c-0.6,0.4-1.2,0.9-1.9,1.3c-0.9,0.5-1.8,1.2-2.7,1.6c-0.8,0.3-1.2,0.1-1.7-0.5c-0.8-0.9-0.7-2-0.3-3
		c0.1-0.3,0.4-0.5,0.7-0.7c0.9-0.7,1.9-1.4,2.8-2.1c1.3-1,2.7-1.9,4-2.9c0.2-0.2,0.5-0.4,0-0.7c-0.7-0.5-1.3-1-2-1.4
		c-1.4-0.9-2.7-1.8-4-2.9c-0.3-0.2-0.6-0.5-0.9-0.7c-0.5-0.3-0.8-0.8-0.8-1.4c0-0.6,0-1.1,0.2-1.7c0.4-1.1,1.8-1.5,2.7-0.8
		c0.4,0.3,0.8,0.5,1.3,0.8c1.4,0.9,2.7,1.8,4.1,2.8c0.6,0.5,1.3,0.9,2,1.3C74.7,77,74.7,77,74.8,76.9z"/>
	<path class="st0" d="M52.3,66.7c0,0.7-0.3,1.3-0.6,1.8c-1.3,1.8-1.3,3.7-1,5.7c0.3,2.2,1.1,4.2,1.7,6.3c0.8,2.7,1.7,5.3,1.9,8.2
		c0.3,2.9-0.4,5.7-2,8.1c-0.3,0.5-0.7,0.9-1.2,1.2c-0.8,0.5-1.8,0.3-2.4-0.7c-0.6-1.1-0.6-2.2,0.2-3.1c1.7-2.3,1.6-4.7,1-7.3
		c-0.6-2.6-1.5-5.1-2.2-7.6c-0.8-2.7-1.4-5.4-1.3-8.2c0.1-1.7,0.7-3.3,1.5-4.7c0.3-0.5,0.6-1,1-1.5c0.3-0.3,0.7-0.5,1.1-0.6
		c0.7-0.2,1.5,0.3,1.9,1.1C52.2,65.8,52.4,66.3,52.3,66.7z"/>
	<path class="st0" d="M16.1,95.9c0-0.8,0.3-1.5,0.8-2.1c1-1.3,1.2-2.8,1.1-4.4c-0.1-1.8-0.6-3.5-1.1-5.2c-0.8-2.6-1.6-5.1-2.2-7.7
		c-0.6-2.4-0.7-4.9-0.1-7.3c0.4-1.6,1.1-3.1,2.3-4.3c1-1,2.1-0.8,2.9,0.6c0.6,1.1,0.3,2.2-0.4,3.1c-1.1,1.5-1.2,3.2-1,4.9
		c0.4,2.8,1.4,5.5,2.2,8.2c0.7,2.4,1.4,4.7,1.6,7.2c0.2,2.9-0.4,5.5-2,7.9c-0.5,0.7-1,1.4-2,1.4c-1.1,0-1.9-0.9-1.9-2.1
		C16.1,96.1,16.1,96,16.1,95.9z"/>
	<path class="st0" d="M32.3,95.9c-0.1-0.8,0.3-1.5,0.7-2.1c1.2-1.6,1.3-3.5,1.1-5.4c-0.2-1.9-0.9-3.7-1.4-5.5
		c-0.8-2.6-1.7-5.2-2.1-7.9c-0.3-2-0.4-4,0.1-6c0.4-1.6,1.1-3.1,2.3-4.2c1-1,2.2-0.8,2.9,0.7c0.6,1.1,0.2,2.2-0.4,3.1
		c-0.9,1.3-1.2,2.8-1.1,4.3c0.2,2.4,1,4.7,1.7,7c0.9,2.7,1.7,5.5,2.1,8.3c0.4,3.1-0.3,5.9-2,8.5c-0.4,0.6-0.9,1.2-1.7,1.4
		c-1.1,0.2-2.1-0.6-2.3-2C32.3,96.2,32.3,96.1,32.3,95.9z"/>
</g>
</svg>
