<?xml version="1.0" encoding="utf-8"?>
<!-- Generator: Adobe Illustrator 24.0.1, SVG Export Plug-In . SVG Version: 6.00 Build 0)  -->
<svg version="1.1" id="Слой_1" xmlns="http://www.w3.org/2000/svg" xmlns:xlink="http://www.w3.org/1999/xlink" x="0px" y="0px"
	 viewBox="0 0 597 597" style="enable-background:new 0 0 597 597;" xml:space="preserve">
<style type="text/css">
	.st0{fill:#FFFFFF;}
</style>
<path class="st0" d="M346.83,196.43v-20.71H5V590h219.75V206.79c0-5.72,5.47-10.36,12.21-10.36H346.83z M53.83,258.57
	c0,5.72-5.47,10.36-12.21,10.36s-12.21-4.64-12.21-10.36v-62.14c0-5.72,5.47-10.36,12.21-10.36s12.21,4.64,12.21,10.36V258.57z"/>
<path class="st0" d="M591,279.29H249.17V590H591V279.29z M420.08,558.93c-74.17,0-134.29-51.01-134.29-113.93
	s60.12-113.93,134.29-113.93c74.17,0,134.29,51.01,134.29,113.93C554.28,507.89,494.22,558.85,420.08,558.93z"/>
<path class="st0" d="M420.08,351.79c-60.68,0-109.88,41.73-109.88,93.21s49.19,93.21,109.88,93.21S529.96,496.48,529.96,445
	C529.89,393.54,480.74,351.84,420.08,351.79z"/>
<path class="st0" d="M346.83,10H5v145h341.83V10z M53.83,134.29c0,5.72-5.47,10.36-12.21,10.36s-12.21-4.64-12.21-10.36V72.14
	c0-5.72,5.47-10.36,12.21-10.36s12.21,4.64,12.21,10.36V134.29z"/>
<path class="st0" d="M591,217.14H310.21v41.43H591V217.14z M371.25,248.21h-24.42c-6.74,0-12.21-4.64-12.21-10.36
	s5.47-10.36,12.21-10.36h24.42c6.74,0,12.21,4.64,12.21,10.36S377.99,248.21,371.25,248.21z M432.29,248.21h-24.42
	c-6.74,0-12.21-4.64-12.21-10.36s5.47-10.36,12.21-10.36h24.42c6.74,0,12.21,4.64,12.21,10.36S439.03,248.21,432.29,248.21z"/>
<path class="st0" d="M249.17,217.14h36.62v41.43h-36.62V217.14z"/>
</svg>
