<?xml version="1.0" encoding="utf-8"?>
<!-- Generator: Adobe Illustrator 24.0.1, SVG Export Plug-In . SVG Version: 6.00 Build 0)  -->
<svg version="1.1" id="Слой_1" xmlns="http://www.w3.org/2000/svg" xmlns:xlink="http://www.w3.org/1999/xlink" x="0px" y="0px"
	 viewBox="0 0 100 100" style="enable-background:new 0 0 100 100;" xml:space="preserve">
<style type="text/css">
	.st0{fill:#FFFFFF;}
</style>
<path class="st0" d="M1.59,45.91c0-10.42,0-20.84,0-31.26c0-4.45,3.87-7.95,8.85-7.95c14.47,0,28.93,0,43.4,0.01
	c3.78,0,6.56,1.51,8.25,4.54c0.55,0.98,0.8,2.04,0.81,3.13c0.02,2.47,0,4.93,0.03,7.4c0,0.46-0.16,0.59-0.67,0.61
	c-8.36,0.37-14.98,5.47-16.57,12.77c-0.42,1.94-0.29,3.91-0.29,5.87c-0.01,11.63,0,23.26,0,34.89c0,2.75-0.02,5.51,0.03,8.26
	c0.01,0.64-0.18,0.81-0.9,0.81c-11.04-0.02-22.08-0.02-33.12-0.02c-1.31,0-2.6-0.01-3.87-0.41c-3.59-1.13-5.92-3.98-5.93-7.46
	c-0.03-7.53,0-15.07,0-22.6C1.6,51.64,1.6,48.77,1.59,45.91C1.6,45.91,1.6,45.91,1.59,45.91z M36.62,73.27
	c0-2.17-1.94-3.92-4.34-3.93c-2.41-0.01-4.4,1.75-4.39,3.88c0.01,2.17,1.94,3.92,4.34,3.93C34.63,77.17,36.62,75.41,36.62,73.27z"/>
<path class="st0" d="M97.94,61.58c0,7.69,0,15.37,0,23.06c0,4.78-3.79,8.18-9.11,8.18c-8.57,0-17.15,0-25.72-0.01
	c-5.13,0-8.94-3.39-8.94-7.97c-0.01-15.55-0.01-31.1,0-46.65c0-4.62,3.8-8,8.97-8c8.62-0.01,17.25-0.01,25.87-0.01
	c5.09,0,8.93,3.45,8.94,8C97.94,45.99,97.94,53.79,97.94,61.58z M76.06,84.97c2.37,0,4.34-1.74,4.35-3.85
	c0.01-2.19-1.95-3.96-4.39-3.96c-2.36,0-4.34,1.75-4.35,3.86C71.66,83.22,73.6,84.97,76.06,84.97z"/>
</svg>
