<?xml version="1.0" encoding="utf-8"?>
<!-- Generator: Adobe Illustrator 24.0.1, SVG Export Plug-In . SVG Version: 6.00 Build 0)  -->
<svg version="1.1" id="Слой_1" xmlns="http://www.w3.org/2000/svg" xmlns:xlink="http://www.w3.org/1999/xlink" x="0px" y="0px"
	 viewBox="0 0 100 100" style="enable-background:new 0 0 100 100;" xml:space="preserve">
<style type="text/css">
	.st0{fill:#FFFFFF;}
</style>
<g>
	<path class="st0" d="M14,100c-1.1,0-2.2,0-3.4,0c-0.1-0.2-0.3-0.2-0.5-0.2c-2.3-0.8-4.2-2.1-5.8-4C1.5,92.2,0.5,88,0.1,83.7
		c-0.3-3.4-0.1-6.9,0.4-10.4c0.9-7.5,3-14.5,6.5-21.1c2.5-4.8,5.4-9.1,9.4-12.6c1.9-1.7,3.9-3.2,6.4-4.1c3.3-1.2,6.5-0.8,9.7,0.3
		c2.1,0.8,3.9,2,5.8,3.2c2.4,1.5,4.8,3.1,7.5,3.9c0.3,0.1,0.4,0.1,0.4-0.3c0.2-1.3,0.4-2.6,0.7-3.8c0.9-4.3,2.5-8.3,5.3-11.8
		c3.9-4.9,9-7.7,15-9c2.8-0.6,5.7-0.7,8.6-0.8c2.1-0.1,4.3-0.2,6.3-0.9c4.1-1.2,7.1-3.7,8.7-7.9c0.5-1.3,0.7-2.8,0.9-4.2
		c0.2-1.4,0.8-2.5,1.8-3.5C94.3,0,95.4,0,96.5,0c0.4,0,0.8,0.1,1.1,0.3C98.7,1,99.4,2,100,3.1c0,1,0,2.1,0,3.1
		c-0.3,0.5-0.3,1.2-0.4,1.7c-1.3,6.4-4.5,11.3-10,14.6c-3.7,2.3-7.8,3.1-12.1,3.4c-2.7,0.2-5.4,0.2-8.1,0.6
		c-6.7,1-11.3,4.7-13.7,11.4c-0.6,1.6-0.9,3.3-1.1,5c0.1,0,0.1,0,0.2,0c2.3-1.1,4.6-2.3,6.8-3.7c1.5-1,2.9-2,4.5-2.8
		c2.4-1.2,5-1.9,7.7-1.7c2.9,0.2,5.5,1.4,7.8,3.2c3.8,3,7,6.7,9.6,10.8c4.6,7.5,7.2,15.7,8.3,24.5c0.1,1.1,0.2,2.3,0.5,3.4
		c0,2.5,0,5.1,0,7.6c-0.2,0.2-0.2,0.5-0.2,0.8c-0.3,2.1-0.7,4.2-1.4,6.2c-1.2,3.4-3.2,6.1-6.4,7.7c-0.8,0.4-1.7,0.7-2.6,1
		c-1.1,0-2.2,0-3.4,0c-0.3-0.3-0.6-0.3-1-0.4c-1.1-0.4-2.3-0.7-3.2-1.5c-1.2-0.9-2.3-1.9-3.4-2.9c-2.7-2.4-5.1-5.2-7.7-7.8
		c-5.5-5.8-12.1-9-19.9-9.3c-7.6-0.2-14.3,2.4-20,7.6c-2.4,2.2-4.6,4.7-6.8,7.1c-2,2.1-3.9,4.1-6.4,5.6C16.5,99.2,15.2,99.6,14,100z
		 M29.2,56.5c0-1.3,0-2.5,0-3.8c0-0.4-0.1-0.5-0.5-0.5c-2.4,0-4.9,0-7.3,0c-0.4,0-0.5,0.1-0.5,0.5c0,2.5,0,5.1,0,7.6
		c0,0.4-0.1,0.5-0.5,0.5c-2.4,0-4.8,0-7.2,0c-0.4,0-0.5,0.1-0.5,0.6c0,2.5,0,5.1,0,7.6c0,0.4,0.1,0.5,0.5,0.5c2.4,0,4.8,0,7.1,0
		c0.5,0,0.7,0.1,0.7,0.7c0,2.5,0,5,0,7.5c0,0.4,0.1,0.5,0.5,0.5c2.4,0,4.9,0,7.3,0c0.4,0,0.5-0.1,0.5-0.5c0-2.5,0-5.1,0-7.6
		c0-0.5,0.2-0.6,0.6-0.6c2.4,0,4.8,0,7.1,0c0.4,0,0.5-0.1,0.5-0.5c0-2.5,0-5.1,0-7.6c0-0.5-0.2-0.5-0.6-0.5c-2.4,0-4.8,0-7.2,0
		c-0.4,0-0.5-0.1-0.5-0.6C29.2,59,29.2,57.8,29.2,56.5z M75,51.1c-2.9,0-5.3,2.5-5.3,5.5c0,3,2.4,5.4,5.2,5.5c2.9,0,5.3-2.5,5.3-5.5
		C80.3,53.5,77.9,51,75,51.1z M83.4,70.6c2.9,0,5.2-2.4,5.2-5.4c0-3-2.4-5.5-5.2-5.5c-2.9,0-5.3,2.5-5.3,5.4
		C78.1,68.2,80.4,70.6,83.4,70.6z M66.7,70.6c2.9,0,5.3-2.4,5.3-5.4c0-3-2.3-5.5-5.2-5.5c-2.9,0-5.3,2.4-5.3,5.4
		C61.4,68.2,63.8,70.6,66.7,70.6z M75,68.5c-2.9,0-5.3,2.5-5.3,5.4c0,3,2.4,5.5,5.3,5.5c2.9,0,5.2-2.5,5.2-5.5
		C80.3,70.9,77.9,68.5,75,68.5z"/>
</g>
</svg>
