<?xml version="1.0" encoding="utf-8"?>
<!-- Generator: Adobe Illustrator 24.0.1, SVG Export Plug-In . SVG Version: 6.00 Build 0)  -->
<svg version="1.1" id="Слой_1" xmlns="http://www.w3.org/2000/svg" xmlns:xlink="http://www.w3.org/1999/xlink" x="0px" y="0px"
	 viewBox="0 0 100 100" style="enable-background:new 0 0 100 100;" xml:space="preserve">
<style type="text/css">
	.st0{fill:#FFFFFF;}
</style>
<path class="st0" d="M0.2,77.6c0.3,0,0.7-0.1,1-0.1c12.9,0,25.7,0,38.6,0c0.8,0,1.3,0.2,1.1,1.8c-0.2,1.4,0.1,1.9,1.1,1.9
	c5.5-0.1,10.9-0.1,16.4,0c0.8,0,1-0.3,1-1.6c-0.1-2.3-0.2-2,1.2-2c12.8,0,25.6,0,38.4,0c1.1,0,1.1,0,0.9,1.9c-0.3,2.7-1,3.7-2.8,4.4
	C96.4,84,95.7,84,95,84c-29.9,0-59.9,0-89.8,0c-1.4,0-2.7-0.1-3.9-1.6c-0.7-0.8-0.7-2.1-1.1-3.1C0.2,78.8,0.2,78.2,0.2,77.6z"/>
<path class="st0" d="M50.3,71.2c-13.1,0-26.3,0-39.4,0c-2.8,0-5-0.8-6.7-3.1c-0.5-0.7-0.8-1.6-0.9-2.5c0-0.4-0.1-0.8-0.1-1.2
	c0-14.1,0-28.3,0-42.4c0-2.4,0.9-4.1,2.7-5.5c1.4-1,3-1.3,4.7-1.3c6.8,0,13.7,0,20.5,0c19.4,0,38.7,0,58.1,0c2.5,0,4.8,0.5,6.6,2.5
	c0.8,0.9,1.1,1.9,1.3,3c0.1,0.5,0.1,1,0.1,1.5c0,13.9,0,27.9,0,41.8c0,0.7,0,1.4-0.2,2.1c-0.5,2.6-3.2,4.7-5.8,4.9
	c-0.6,0-1.1,0-1.7,0C76.4,71.2,63.4,71.2,50.3,71.2z M52.2,45.8c2.1-0.3,4.2-0.5,6.6-0.8c-5.8-4.3-11.3-8.5-17-12.7
	c0.9,6.8,2.4,13.3,3.2,20c1.4-1,2.1-2.5,3.2-3.6c1-1,0.9-1.1,1.7,0c0.2,0.3,0.5,0.6,0.7,0.9c1.2,2,2.4,4,3.6,5.9
	c1.3,2.1,1.6,2.2,3.8,0.8c0.4-0.3,0.5-0.5,0.3-0.9c-0.6-1-1.2-1.9-1.8-2.9c-1.3-2-2.5-4.1-3.7-6.2C52.5,46.2,52.4,46.1,52.2,45.8z"
	/>
</svg>
