<?xml version="1.0" encoding="utf-8"?>
<!-- Generator: Adobe Illustrator 24.0.1, SVG Export Plug-In . SVG Version: 6.00 Build 0)  -->
<svg version="1.1" id="Слой_1" xmlns="http://www.w3.org/2000/svg" xmlns:xlink="http://www.w3.org/1999/xlink" x="0px" y="0px"
	 viewBox="0 0 1366 413" style="enable-background:new 0 0 1366 413;" xml:space="preserve">
<style type="text/css">
	.st0{fill:#FFFFFF;}
</style>
<g>
	<path class="st0" d="M0.39,363.22h313.42V49.78H0.39V363.22z M201.27,73.72c55.4,18.15,95.43,70.67,95.58,132.72
		c0.15,61.04-39.08,113.43-95.58,132.79V73.72z M157.05,66.62c10.01,0,20.67,1.33,29.55,3.1c0,71.01-68.67,129.45-139.55,129.45
		l-29.64-0.04C22.26,126.33,82.5,66.62,157.05,66.62z M47.07,213.96c70.87,0,139.52,58.38,139.52,129.32
		c-8.87,1.81-20.06,3.15-29.54,3.15c-74.58-0.1-136.85-60-139.66-132.47H47.07z"/>
	<g>
		<path class="st0" d="M418.72,234.05v-19.76h65.21V189.1h-65.23v-36.67h69.38v-25.12h-96.08v54v51.6
			c0,26.69,11.37,44.95,38.06,48.7c0.54,0.13,1.06,0.23,1.55,0.24h0.49c2.73,0.3,5.53,0.51,8.45,0.51h49.39v-25.1h-49.17
			C432.29,257.26,418.72,253.07,418.72,234.05z"/>
		<polygon class="st0" points="508.92,200.57 508.92,282.39 535.62,282.39 535.62,200.04 535.62,127.27 508.92,127.27 		"/>
		<path class="st0" d="M612.2,166.67c-33.76,0-59.02,23.25-59.02,59.47v0.9c0,35.32,24.37,58.13,59.69,58.13
			c16.99,0,32.86-4.69,47.39-20.12l-16.09-15.65c-8.5,8.49-16.77,12.97-30.41,12.97c-19.89,0-33.09-11.63-33.98-29.51h87.63
			c0.45-4.47,0.45-9.39,0.45-9.39C667.87,191.93,645.73,166.67,612.2,166.67z M580.46,214.07c1.12-13.64,14.98-24.59,31.74-24.59
			c15.65,0,28.39,11.18,28.39,24.59H580.46z"/>
		<path class="st0" d="M742.91,190.59c12.07,0,21.02,4.47,28.61,12.3l16.54-17.21c-12.97-13.86-28.39-19.45-45.16-19.45
			c-33.98,0-61.25,25.26-61.25,59.69s27.27,59.69,61.25,59.69c16.77,0,32.19-5.59,45.16-19.45l-16.54-17.21
			c-7.6,7.82-16.54,12.3-28.61,12.3c-19.67,0-34.65-14.98-34.65-35.32C708.26,205.57,723.23,190.59,742.91,190.59z"/>
		<path class="st0" d="M831.4,234.08l-0.03,0v-39.6h24.29v-24.26H831.4v-42.95h-26.71v55.64v52.75l0.07,0
			c0.76,25.2,12.22,42.37,37.98,45.99c0.54,0.13,1.06,0.23,1.55,0.24h0.49c2.73,0.3,5.53,0.51,8.45,0.51h2.83l0.1-25.1h-2.7
			C844.97,257.3,831.4,253.11,831.4,234.08z"/>
		<path class="st0" d="M904.61,186.9v-16.68h-26.49v54.97v57.2h26.49v-58.98c0-18.47,11.79-30.05,30.26-30.05
			c4.23,0,8.02,0.44,11.13,1.11v-25.82c-1.11-0.22-5.11-0.66-8.01-0.66C921.97,168,909.95,175.34,904.61,186.9z"/>
		<path class="st0" d="M1011.31,166.89c-34.06,0-61.21,25.81-61.21,59.42c0,33.6,27.16,59.42,61.21,59.42
			c33.82,0,61.2-25.83,61.2-59.42C1072.51,192.7,1045.13,166.89,1011.31,166.89z M1011.31,261.48c-19.81,0-34.71-15.36-34.71-35.17
			c0-19.81,14.9-35.17,34.71-35.17c19.59,0,34.71,15.35,34.71,35.17C1046.02,246.12,1030.9,261.48,1011.31,261.48z"/>
		<polygon class="st0" points="1088.93,197.9 1088.93,282.39 1115.65,282.39 1115.65,198.97 1115.65,127.27 1088.93,127.27 		"/>
		<path class="st0" d="M1211.97,235.43c0,17.8-10.46,25.38-24.49,25.38c-14.02,0-24.48-7.58-24.48-25.15v-65.44h-26.93v32.49v35.17
			c0,32.05,23.37,47.41,51.19,47.41c28.04,0,51.62-15.58,51.62-48.08v-34.5v-32.49h-26.92V235.43z"/>
		<polygon class="st0" points="1339.95,246.52 1323.11,222.97 1343.96,194.56 1361.82,170.22 1332.67,170.22 1308.4,203.83 
			1283.93,170.22 1254.99,170.22 1271.59,192.92 1293.72,223.19 1270.52,255.5 1251.21,282.4 1279.92,282.4 1308.4,242.77 
			1336.9,282.4 1365.61,282.4 		"/>
	</g>
</g>
</svg>
