<svg xmlns="http://www.w3.org/2000/svg" viewBox="0 0 194.17 54.07"><defs><style>.cls-1{fill:#fff;}</style></defs><title>luxhome1</title><g id="Слой_2" data-name="Слой 2"><g id="Слой_1-2" data-name="Слой 1"><rect width="54.07" height="54.07"/><path class="cls-1" d="M51.67,51.67H2.4V2.4H51.67Zm-48.28-1H50.68V3.39H3.39Z"/><path class="cls-1" d="M22.71,24.93h-13V8.29h1.23v15.5H22.71Z"/><path class="cls-1" d="M28.82,17.08c0,4.28,2.74,7,7.17,7s7.16-2.74,7.16-7V8.29h1.23v8.83c0,4.91-3.22,8.13-8.39,8.13s-8.4-3.22-8.4-8.13V8.29h1.23Z"/><polygon class="cls-1" points="44.38 45.78 44.38 44.68 28.4 37.17 28.4 36.98 28.5 36.93 44.38 29.51 44.38 28.37 27.15 36.45 26.95 36.45 9.69 28.32 9.69 29.42 25.72 36.93 25.72 37.12 9.69 44.6 9.69 45.74 26.9 37.69 27.1 37.69 44.38 45.78"/><rect x="67.47" y="39.13" width="126.7" height="9.26"/><path d="M87.05,34.57V20.65H69V34.57H67.47V6.09H69V19.23h18V6.09h1.56V34.57Z"/><path d="M125.91,20.32c0,9-4.91,14.66-12.68,14.66s-12.69-5.66-12.69-14.66,4.93-14.64,12.69-14.64S125.91,11.36,125.91,20.32Zm-23.77,0c0,8.07,4.34,13.2,11.09,13.2s11.09-5.13,11.09-13.2S120,7.14,113.23,7.14,102.14,12.25,102.14,20.32Z"/><path d="M164.44,34.57h-1.5V9.33h-.07l-11,25.18h-1.5l-11-25.18h-.08V34.57h-1.5V6.09h1.74l11.5,26.44h.12L162.67,6.09h1.77Z"/><path d="M194.17,34.57H177.58V6.09h16.59V7.53h-15V19.25h14.32v1.42H179.14V33.12h15Z"/><path class="cls-1" d="M73.31,46.81v-6.2h3.76v.7h-3v2.13h2.75v.69H74.08v2.68Z"/><path class="cls-1" d="M87.52,44.59a1.69,1.69,0,0,0,3.38,0v-4h.77v4a2.47,2.47,0,0,1-4.92,0v-4h.77Z"/><path class="cls-1" d="M102.44,46.81h-.77v-6.2H104a1.81,1.81,0,0,1,2,1.85,1.78,1.78,0,0,1-1.25,1.78l1.43,2.57h-.9L104,44.36h-1.52Zm0-3.13H104a1.11,1.11,0,0,0,1.25-1.19,1.14,1.14,0,0,0-1.28-1.19h-1.49Z"/><path class="cls-1" d="M115.77,46.81v-6.2h.75l3.39,4.87h0V40.61h.77v6.2H120L116.57,42h0v4.85Z"/><path class="cls-1" d="M130.71,46.81v-6.2h.78v6.2Z"/><path class="cls-1" d="M143.09,46.81v-5.5h-2v-.7h4.76v.7h-2v5.5Z"/><path class="cls-1" d="M156.25,44.59a1.69,1.69,0,0,0,3.37,0v-4h.77v4a2.47,2.47,0,0,1-4.92,0v-4h.78Z"/><path class="cls-1" d="M171.16,46.81h-.77v-6.2h2.37a1.87,1.87,0,0,1,.73,3.63l1.43,2.57H174l-1.32-2.45h-1.53Zm0-3.13h1.53a1.1,1.1,0,0,0,1.24-1.19,1.14,1.14,0,0,0-1.28-1.19h-1.49Z"/><path class="cls-1" d="M188.33,46.81H184.5v-6.2h3.83v.7h-3.06v2h2.91V44h-2.91v2.13h3.06Z"/></g></g></svg>