<?xml version="1.0" encoding="utf-8"?>
<!-- Generator: Adobe Illustrator 24.0.1, SVG Export Plug-In . SVG Version: 6.00 Build 0)  -->
<svg version="1.1" id="Слой_1" xmlns="http://www.w3.org/2000/svg" xmlns:xlink="http://www.w3.org/1999/xlink" x="0px" y="0px"
	 viewBox="0 0 100 100" style="enable-background:new 0 0 100 100;" xml:space="preserve">
<style type="text/css">
	.st0{fill:#FFFFFF;}
</style>
<path class="st0" d="M87.33,86.81c-24.46,0-48.92,0-73.39,0c-0.26-0.09-0.53-0.06-0.79-0.09c-2.44-0.29-4.6-1.23-6.52-2.74
	c-1.27-1-2.24-2.26-3.06-3.64c-0.69-1.17-1.12-2.46-1.34-3.8c-0.08-0.47-0.13-0.95-0.2-1.43c0-12.62,0-25.25,0-37.87
	c0.01-0.05,0.04-0.11,0.04-0.16c0.16-1.93,0.67-3.74,1.72-5.39c0.88-1.4,1.9-2.65,3.26-3.61c0.55-0.39,1.11-0.78,1.71-1.09
	c1.9-0.99,3.93-1.45,6.07-1.45c4.71,0,9.42,0,14.12,0.01c0.2,0,0.27-0.04,0.28-0.26c0.04-1.05,0.17-2.08,0.49-3.1
	c0.68-2.19,1.76-4.12,3.48-5.67c0.93-0.84,1.93-1.57,3.07-2.12c1.81-0.88,3.71-1.3,5.72-1.3c5.68,0,11.35,0,17.03,0
	c0.44,0,0.87,0.01,1.3,0.04c1.86,0.12,3.6,0.67,5.24,1.55c1.22,0.65,2.27,1.53,3.21,2.53c1.8,1.93,2.75,4.27,3.16,6.84
	c0.06,0.4,0.08,0.8,0.09,1.2c0,0.24,0.07,0.29,0.3,0.29c4.7-0.01,9.4,0,14.1-0.01c1.87,0,3.66,0.36,5.38,1.11
	c1.07,0.46,2.04,1.11,2.94,1.83c1.41,1.13,2.46,2.57,3.27,4.17c0.86,1.7,1.22,3.54,1.22,5.44c0,12.06,0,24.12,0,36.18
	c0,0.46-0.01,0.92-0.07,1.38c-0.19,1.59-0.6,3.11-1.41,4.52c-0.86,1.51-1.89,2.85-3.28,3.91c-1.07,0.81-2.19,1.49-3.46,1.94
	c-0.84,0.3-1.69,0.54-2.57,0.66C88.08,86.73,87.71,86.77,87.33,86.81z M50.48,78.2c1.87,0,3.62-0.2,5.33-0.6
	c2.31-0.53,4.47-1.44,6.5-2.64c1.19-0.7,2.27-1.56,3.32-2.45c1.19-1.02,2.2-2.22,3.14-3.46c1.45-1.9,2.44-4.05,3.21-6.29
	c0.72-2.13,1.03-4.34,1.01-6.59c-0.02-2.38-0.35-4.72-1.18-6.98c-0.82-2.23-1.83-4.34-3.32-6.2c-0.98-1.22-2-2.4-3.21-3.4
	c-1.17-0.97-2.38-1.87-3.72-2.59c-0.91-0.49-1.83-0.94-2.79-1.31c-2.12-0.82-4.31-1.3-6.58-1.46c-2.17-0.15-4.32,0.01-6.44,0.47
	c-2.35,0.51-4.55,1.41-6.62,2.61c-1.13,0.66-2.16,1.46-3.17,2.28c-1.2,0.98-2.22,2.16-3.18,3.36c-1.39,1.74-2.38,3.73-3.19,5.79
	c-0.77,1.97-1.16,4.04-1.27,6.15c-0.16,3.14,0.23,6.19,1.44,9.12c0.85,2.07,1.87,4.04,3.32,5.77c0.98,1.17,1.99,2.3,3.19,3.25
	c1.05,0.83,2.11,1.63,3.3,2.27c1.05,0.57,2.11,1.09,3.24,1.5C45.32,77.72,47.92,78.18,50.48,78.2z"/>
<path class="st0" d="M38,56.46c0.01-2.18,0.38-3.98,1.23-5.65c0.83-1.62,1.89-3.07,3.33-4.21c0.94-0.74,1.93-1.39,3.04-1.85
	c2.14-0.88,4.35-1.21,6.64-0.92c2.45,0.32,4.62,1.27,6.53,2.84c1.4,1.15,2.44,2.57,3.26,4.17c1.02,2,1.35,4.12,1.2,6.34
	c-0.1,1.35-0.4,2.67-0.97,3.89c-0.76,1.62-1.74,3.1-3.1,4.29c-1.82,1.59-3.91,2.65-6.3,3.06c-2.33,0.4-4.6,0.18-6.81-0.66
	c-1.1-0.42-2.1-1.01-3.05-1.7c-1.5-1.09-2.61-2.5-3.52-4.11C38.45,60.15,38.05,58.2,38,56.46z"/>
</svg>
