<?xml version="1.0" encoding="utf-8"?>
<!-- Generator: Adobe Illustrator 24.0.1, SVG Export Plug-In . SVG Version: 6.00 Build 0)  -->
<svg version="1.1" id="Слой_1" xmlns="http://www.w3.org/2000/svg" xmlns:xlink="http://www.w3.org/1999/xlink" x="0px" y="0px"
	 viewBox="0 0 100 100" style="enable-background:new 0 0 100 100;" xml:space="preserve">
<style type="text/css">
	.st0{fill:#FFFFFF;}
</style>
<path class="st0" d="M100.13,50.63c0,0.33,0,0.67,0,1c-0.37,0.85-1.04,1.31-1.9,1.64c-1.86,0.72-3.68,1.54-5.54,2.28
	c-0.44,0.17-0.58,0.39-0.57,0.86c0.02,4.37,0,8.74,0.03,13.11c0.01,2.07-0.08,4.11-0.68,6.11c-1.19,3.96-3.38,7.3-6.3,10.18
	c-3.52,3.46-7.66,5.81-12.52,6.86c-1,0.21-2.02,0.24-3.01,0.46c-13.04,0-26.08,0-39.13,0c-0.16-0.04-0.32-0.1-0.48-0.11
	c-1.35-0.11-2.68-0.36-3.98-0.74c-5.48-1.59-9.91-4.72-13.38-9.22C9.73,79.25,8.02,75,8.1,70.09c0.08-4.6,0.01-9.2,0.03-13.8
	c0-0.37-0.11-0.54-0.45-0.68c-1.94-0.8-3.86-1.65-5.82-2.41c-0.81-0.32-1.4-0.78-1.73-1.57c0-0.33,0-0.67,0-1
	c0.9-1.58,1.6-1.82,3.32-1.13c0.14,0.05,0.27,0.12,0.4,0.17c1.29,0.54,2.57,1.07,3.86,1.61c0.24,0.1,0.43,0.18,0.42-0.22
	c-0.06-2.06,0.1-4.12-0.14-6.18c-0.3-2.54-1.4-4.42-3.96-5.31c-1.56-0.54-2.1-1.62-1.85-3.24c0.39-2.56,1.77-4.44,3.97-5.75
	c2.1-1.25,4.43-1.46,6.81-1.46c11.87,0.01,23.74,0.01,35.61,0.01c13.1,0,26.2-0.01,39.3,0c1.63,0,3.24,0.16,4.78,0.76
	c3.02,1.19,4.93,3.31,5.45,6.57c0.21,1.33-0.24,2.25-1.42,2.92c-0.25,0.14-0.52,0.28-0.79,0.37c-2.14,0.73-3.15,2.34-3.52,4.45
	c-0.4,2.27-0.19,4.57-0.24,6.86c-0.01,0.5,0.25,0.29,0.47,0.2c1.56-0.65,3.11-1.29,4.67-1.94c0.89-0.37,1.66-0.2,2.34,0.47
	C99.86,50.02,99.92,50.36,100.13,50.63z"/>
<path class="st0" d="M16.95,25.09c2.47-1.4,5.03-2.54,7.67-3.52c3.05-1.13,6.17-2,9.35-2.68c0.51-0.11,0.71-0.36,0.87-0.81
	c1.64-4.61,4.71-7.94,9.24-9.75c5.5-2.2,10.73-1.48,15.57,1.94c2.79,1.98,4.67,4.64,5.78,7.86c0.15,0.44,0.36,0.66,0.84,0.76
	c5.48,1.14,10.75,2.94,15.76,5.43c0.42,0.21,0.83,0.44,1.41,0.75C61.16,25.09,39.06,25.09,16.95,25.09z M61.01,17.96
	c-1.99-4.27-6.64-7.06-11.36-6.8c-4.7,0.25-8.11,2.59-10.47,6.81C46.53,17,53.73,17,61.01,17.96z"/>
</svg>
