<?xml version="1.0" encoding="utf-8"?>
<!-- Generator: Adobe Illustrator 24.0.1, SVG Export Plug-In . SVG Version: 6.00 Build 0)  -->
<svg version="1.1" id="Слой_1" xmlns="http://www.w3.org/2000/svg" xmlns:xlink="http://www.w3.org/1999/xlink" x="0px" y="0px"
	 viewBox="0 0 100 100" style="enable-background:new 0 0 100 100;" xml:space="preserve">
<style type="text/css">
	.st0{fill:#FFFFFF;}
</style>
<path class="st0" d="M41.42,88.29c-7.94-0.03-15.88-0.11-23.82-0.6c-1.83-0.11-3.61-0.48-5.4-0.79c-0.53-0.09-0.66-0.35-0.69-0.84
	c-0.61-9.7-0.87-19.41-0.43-29.13c0.32-7.04,1.01-14.04,2.27-20.99c0.34-1.89-0.21-3.77-0.6-5.63C11.47,24.21,9.1,18.48,6.59,12.8
	c-0.12-0.26-0.23-0.53-0.35-0.79C6,11.53,6.02,11.07,6.37,10.66c0.39-0.45,0.86-0.32,1.33-0.14c2.74,1.05,5.57,1.76,8.48,2.16
	c2.42,0.33,4.21-0.55,5.33-2.71c0.29-0.55,0.72-0.46,1.15-0.46c6.05,0,12.09,0,18.14,0.03c3.76,0.01,7.53,0.14,11.29,0.08
	c5.65-0.09,11.19,4.21,12.91,8.91c2.04,5.57,3.52,11.29,4.58,17.11c2.25,12.37,2.71,24.85,2.41,37.39
	c-0.1,4.28-0.31,8.55-0.57,12.82c-0.05,0.78-0.36,0.98-1.06,1.13c-4.58,0.99-9.25,0.9-13.89,1.1
	C51.45,88.29,46.43,88.25,41.42,88.29z M47.55,54.64c0-5.37,0.02-10.75-0.01-16.12c-0.01-2.81-1.97-4.95-4.63-5.1
	c-0.96-0.05-1.93-0.05-2.89,0c-2.56,0.15-4.5,2.13-4.62,4.69c-0.04,0.83,0.02,1.67-0.03,2.51c-0.03,0.61,0.2,0.77,0.78,0.76
	c1.41-0.03,2.83,0.04,4.24-0.02c1.01-0.05,0.74,0.62,0.77,1.15c0.04,0.55,0.06,1-0.76,0.96c-1.41-0.07-2.83,0-4.24-0.03
	c-0.55-0.01-0.83,0.1-0.8,0.73c0.05,0.83,0.04,1.67,0,2.51c-0.03,0.56,0.19,0.72,0.72,0.71c1.22-0.03,2.44-0.02,3.67,0
	c1.52,0.02,1.37-0.31,1.42,1.46c0.02,0.65-0.22,0.82-0.83,0.8c-1.38-0.04-2.77,0.01-4.15-0.03c-0.61-0.02-0.88,0.13-0.83,0.8
	c0.05,0.8,0.05,1.61,0,2.41c-0.04,0.6,0.17,0.77,0.77,0.76c1.45-0.04,2.9,0.02,4.34-0.02c0.67-0.02,0.79,0.31,0.68,0.82
	c-0.1,0.46,0.43,1.27-0.64,1.25c-0.71-0.01-1.42-0.02-2.12,0c-0.96,0.03-2.23-0.41-2.79,0.16c-0.65,0.66-0.12,1.95-0.22,2.97
	c-0.06,0.63,0.16,0.85,0.8,0.83c1.41-0.04,2.83,0.03,4.24-0.02c0.82-0.03,0.77,0.45,0.74,0.98c-0.02,0.51,0.2,1.16-0.74,1.08
	c-0.64-0.05-1.29-0.04-1.93,0c-1.02,0.06-2.4-0.47-2.94,0.22c-0.51,0.64-0.13,1.97-0.18,3c-0.03,0.62,0.23,0.76,0.79,0.75
	c1.38-0.03,2.77,0.04,4.15-0.03c0.81-0.04,0.9,0.32,0.86,0.97c-0.03,0.58,0.13,1.16-0.83,1.11c-1.41-0.08-2.83,0-4.24-0.03
	c-0.53-0.01-0.75,0.14-0.73,0.71c0.04,0.93-0.01,1.87,0.03,2.8c0.09,2.32,1.78,4.2,4.07,4.6c0.93,0.16,1.86,0.1,2.79,0.09
	c3.26-0.03,5.29-2.09,5.29-5.34C47.55,65.19,47.55,59.92,47.55,54.64z"/>
<path class="st0" d="M39.1,6.69c-4.86,0-9.71,0-14.57-0.01c-0.27,0-0.65,0.15-0.79-0.16c-0.14-0.31,0.11-0.61,0.31-0.86
	c0.74-0.88,1.78-1.25,2.82-1.58c2.43-0.77,4.95-1.1,7.49-1.32c7.39-0.63,14.77-0.61,22.12,0.52c0.76,0.12,1.56,0.19,2.26,0.47
	c1.55,0.63,3.13,0.5,4.73,0.41c4.77-0.25,9.44,0.29,13.96,1.88c7.45,2.63,12.03,8.09,14.72,15.28c2.57,6.88,2.81,14.01,1.85,21.21
	c-1.1,8.21-3.88,15.89-7.51,23.29c-1.78,3.64-3.74,7.17-5.91,10.6c-0.32,0.5-0.66,0.97-1.25,1.14c-0.73,0.2-1.42,0.08-1.94-0.51
	c-0.57-0.64-0.63-1.37-0.29-2.15c0.87-2,1.81-3.98,2.58-6.02c3.28-8.7,5.72-17.6,6.03-26.97c0.2-6.04-0.33-12.02-2.85-17.56
	c-1.68-3.68-4.73-6.14-8.85-6.9c-1.53-0.28-3,0.1-4.39,0.78c-0.91,0.44-1.58,0.18-1.95-0.76c-1.09-2.75-2.85-4.97-5.05-6.95
	c-3.07-2.76-6.69-3.82-10.69-3.86c-4.28-0.04-8.55-0.01-12.83-0.01C39.1,6.66,39.1,6.68,39.1,6.69z"/>
<path class="st0" d="M42.85,98.14c-7.98,0.12-15.95,0.04-23.91-0.47c-2.7-0.17-5.39-0.4-8.04-0.94c-0.47-0.1-0.94-0.21-1.4-0.36
	c-1.69-0.52-1.77-0.7-1.09-2.34c0.54-1.27,1.07-2.55,1.61-3.82c0.13-0.31,0.18-0.63,0.73-0.51c3.98,0.89,8.03,1.03,12.08,1.17
	c13.54,0.45,27.07,0.49,40.6-0.18c2.89-0.14,5.78-0.34,8.62-0.96c0.51-0.11,0.67,0.06,0.84,0.48c0.59,1.46,1.16,2.93,1.85,4.35
	c0.44,0.9,0.08,1.31-0.69,1.61c-1.39,0.54-2.85,0.77-4.32,0.96c-5.94,0.76-11.92,0.93-17.9,1.02
	C48.84,98.17,45.84,98.14,42.85,98.14z"/>
</svg>
