<?xml version="1.0" encoding="utf-8"?>
<!-- Generator: Adobe Illustrator 24.0.1, SVG Export Plug-In . SVG Version: 6.00 Build 0)  -->
<svg version="1.1" id="Слой_1" xmlns="http://www.w3.org/2000/svg" xmlns:xlink="http://www.w3.org/1999/xlink" x="0px" y="0px"
	 viewBox="0 0 100 100" style="enable-background:new 0 0 100 100;" xml:space="preserve">
<style type="text/css">
	.st0{fill:#FFFFFF;}
</style>
<g>
	<path class="st0" d="M50,78.8c-15,0-30,0-45,0c-3.6,0-5-1.5-5-5.4c0-19.3,0-38.6,0-57.9c0-3.7,1.4-5.2,4.9-5.2
		c30.1,0,60.2,0,90.4,0c3.4,0,4.8,1.6,4.8,5.1c0,19.4,0,38.7,0,58.1c0,3.8-1.4,5.2-5,5.2C80,78.8,65,78.8,50,78.8z M61,50
		c-0.1,0-0.2,0-0.3,0c-1.5-4.7-3-9.4-4.5-14.1c-0.4-1.3-0.6-3-1.5-3.8c-0.9-0.8-2.5-0.1-3.8-0.3c-1.1-0.1-1.3,0.2-0.9,1.3
		c2.3,6.7,4.5,13.4,6.8,20.1c1.3,3.9,1.3,3.9,5.3,3.9c0.9,0,1.3-0.3,1.6-1.2c2.2-6.7,4.5-13.3,6.7-20c0.4-1.3,1.7-3,1-3.9
		c-0.6-0.7-2.6-0.2-3.9-0.2c-0.7,0-1,0.3-1.2,0.9c-0.4,1.3-0.8,2.6-1.2,3.8C63.8,41.1,62.4,45.5,61,50z M40.1,46.7
		c0-2.8,0-5.6,0-8.4c0-2.5-0.2-2.1,2.1-2.1c0.7,0,1.4,0,2.2,0c2.8,0,2.8,0,2.8-3.1c0-1-0.2-1.3-1.2-1.3c-4.9,0-9.9,0-14.8,0
		c-3.1,0-3.1,0-2.9,3.3c0,0.8,0.3,1.1,1.1,1.1c1.6,0,3.2,0.1,4.8,0c1-0.1,1.3,0.3,1.3,1.4c-0.1,5.3,0,10.5,0,15.8
		c0,3.9,0,3.9,3.7,3.9c1,0,1.2-0.4,1.2-1.4C40,52.8,40.1,49.8,40.1,46.7z"/>
	<path class="st0" d="M50.1,81.1c9.7,0,19.4,0,29.1,0c1.3,0,1.8,0.3,1.6,1.8c-0.2,2.3-1.5,3.6-3.8,3.6c-3.7,0-7.4,0-11.2,0
		c-14.2,0-28.4,0-42.6,0c-2.8,0-4.1-1.3-4.2-3.9c0-1.1,0.3-1.5,1.4-1.5c7.8,0,15.7,0,23.5,0C46.1,81.1,48.1,81.1,50.1,81.1z"/>
</g>
</svg>
