<?xml version="1.0" encoding="utf-8"?>
<!-- Generator: Adobe Illustrator 23.0.1, SVG Export Plug-In . SVG Version: 6.00 Build 0)  -->
<svg version="1.1" id="Layer_1" xmlns="http://www.w3.org/2000/svg" xmlns:xlink="http://www.w3.org/1999/xlink" x="0px" y="0px"
	 viewBox="0 0 225 55" style="enable-background:new 0 0 225 55;" xml:space="preserve">
<style type="text/css">
	.st0{fill-rule:evenodd;clip-rule:evenodd;fill:#121441;}
</style>
<g>
	<path class="st0" d="M1.53,52.54h50.79V1.75H1.53V52.54L1.53,52.54z M34.09,5.63L34.09,5.63c8.98,2.94,15.46,11.45,15.49,21.51
		c0.02,9.89-6.33,18.38-15.49,21.52V5.63L34.09,5.63z M26.92,4.48L26.92,4.48c1.62,0,3.35,0.22,4.79,0.5
		c0,11.51-11.13,20.98-22.62,20.98l-4.8-0.01C5.08,14.15,14.84,4.48,26.92,4.48L26.92,4.48z M9.1,28.36L9.1,28.36
		c11.48,0,22.61,9.46,22.61,20.96c-1.44,0.29-3.25,0.51-4.79,0.51C14.83,49.81,4.74,40.1,4.29,28.36L9.1,28.36L9.1,28.36z"/>
	<path class="st0" d="M69.33,31.61v-3.2h10.57v-4.08H69.32v-5.94h11.24v-4.07H65v8.75v8.36c0,4.33,1.84,7.28,6.17,7.89
		c0.09,0.02,0.17,0.04,0.25,0.04h0.08c0.44,0.05,0.9,0.08,1.37,0.08h8v-4.07H72.9C71.52,35.37,69.33,34.69,69.33,31.61z"/>
	<polygon class="st0" points="83.94,26.19 83.94,39.45 88.27,39.45 88.27,26.1 88.27,14.31 83.94,14.31 	"/>
	<path class="st0" d="M100.68,20.69c-5.47,0-9.56,3.77-9.56,9.64v0.15c0,5.72,3.95,9.42,9.67,9.42c2.75,0,5.33-0.76,7.68-3.26
		l-2.61-2.54c-1.38,1.38-2.72,2.1-4.93,2.1c-3.22,0-5.36-1.88-5.51-4.78h14.2c0.07-0.73,0.07-1.52,0.07-1.52
		C109.7,24.79,106.11,20.69,100.68,20.69L100.68,20.69z M95.54,28.37L95.54,28.37c0.18-2.21,2.43-3.98,5.14-3.98
		c2.54,0,4.6,1.81,4.6,3.98H95.54z"/>
	<path class="st0" d="M121.86,24.57c1.96,0,3.4,0.73,4.64,1.99l2.68-2.79c-2.1-2.25-4.6-3.15-7.32-3.15c-5.51,0-9.93,4.09-9.93,9.67
		s4.42,9.67,9.93,9.67c2.72,0,5.22-0.91,7.32-3.15l-2.68-2.79c-1.23,1.27-2.68,1.99-4.64,1.99c-3.19,0-5.62-2.43-5.62-5.72
		C116.25,27,118.67,24.57,121.86,24.57z"/>
	<path class="st0" d="M136.2,31.62L136.2,31.62l-0.01-6.42h3.94v-3.93h-3.93v-6.96h-4.33v9.02v8.55l0.01,0
		c0.12,4.08,1.98,6.87,6.15,7.45c0.09,0.02,0.17,0.04,0.25,0.04h0.08c0.44,0.05,0.9,0.08,1.37,0.08h0.46l0.02-4.07h-0.44
		C138.4,35.38,136.2,34.7,136.2,31.62z"/>
	<path class="st0" d="M148.07,23.97v-2.7h-4.29v8.91v9.27h4.29v-9.56c0-2.99,1.91-4.87,4.9-4.87c0.69,0,1.3,0.07,1.8,0.18v-4.18
		c-0.18-0.04-0.83-0.11-1.3-0.11C150.88,20.91,148.93,22.1,148.07,23.97z"/>
	<path class="st0" d="M165.36,20.73c-5.52,0-9.92,4.18-9.92,9.63c0,5.44,4.4,9.63,9.92,9.63c5.48,0,9.92-4.19,9.92-9.63
		C175.28,24.91,170.84,20.73,165.36,20.73L165.36,20.73z M165.36,36.06L165.36,36.06c-3.21,0-5.63-2.49-5.63-5.7
		c0-3.21,2.42-5.7,5.63-5.7c3.17,0,5.63,2.49,5.63,5.7C170.98,33.57,168.53,36.06,165.36,36.06z"/>
	<polygon class="st0" points="177.94,25.75 177.94,39.45 182.27,39.45 182.27,25.93 182.27,14.31 177.94,14.31 	"/>
	<path class="st0" d="M197.88,31.83c0,2.89-1.69,4.11-3.97,4.11c-2.27,0-3.97-1.23-3.97-4.08v-10.6h-4.36v5.27v5.7
		c0,5.19,3.79,7.68,8.3,7.68c4.55,0,8.37-2.52,8.37-7.79v-5.59v-5.27h-4.36L197.88,31.83L197.88,31.83z"/>
	<polygon class="st0" points="218.62,33.63 215.89,29.82 219.27,25.21 222.16,21.27 217.44,21.27 213.51,26.71 209.54,21.27 
		204.85,21.27 207.54,24.95 211.13,29.85 207.37,35.09 204.24,39.45 208.89,39.45 213.51,33.02 218.12,39.45 222.77,39.45 	"/>
</g>
</svg>
