<?xml version="1.0" encoding="utf-8"?>
<svg xmlns="http://www.w3.org/2000/svg" xmlns:xlink="http://www.w3.org/1999/xlink">
    <symbol viewBox="0 0 21 41" id="arrow" xmlns="http://www.w3.org/2000/svg">
        <path d="M.184 40.096c-.2.2-.2.499 0 .698.2.2.498.2.697 0l19.913-19.953c.2-.2.2-.5 0-.699L.881.188a.48.48 0 0 0-.697 0c-.2.2-.2.5 0 .699L19.799 20.44z" />
    </symbol>
    <symbol viewBox="0 0 306 306" id="arrow1" xmlns="http://www.w3.org/2000/svg">
        <path d="M94.35 0l-35.7 35.7L175.95 153 58.65 270.3l35.7 35.7 153-153z" />
    </symbol>
    <symbol viewBox="0 0 348.077 348.077" id="call" xmlns="http://www.w3.org/2000/svg">
        <path d="M340.273 275.083l-53.755-53.761c-10.707-10.664-28.438-10.34-39.518.744l-27.082 27.076a792.327 792.327 0 0 1-5.344-2.973c-17.102-9.476-40.509-22.464-65.14-47.113-24.704-24.701-37.704-48.144-47.209-65.257-1.003-1.813-1.964-3.561-2.913-5.221l18.176-18.149 8.936-8.947c11.097-11.1 11.403-28.826.721-39.521L73.39 8.194c-10.682-10.68-28.421-10.356-39.518.744l-15.15 15.237.414.411c-5.08 6.482-9.325 13.958-12.484 22.02C3.74 54.28 1.927 61.603 1.098 68.941-6 127.785 20.89 181.564 93.866 254.541c100.875 100.868 182.167 93.248 185.674 92.876 7.638-.913 14.958-2.738 22.397-5.627 7.992-3.122 15.463-7.361 21.941-12.43l.331.294 15.348-15.029c11.074-11.098 11.393-28.83.716-39.542z" />
    </symbol>
    <symbol viewBox="0 0 474.172 474.172" id="card" xmlns="http://www.w3.org/2000/svg">
        <path d="M0 91.963V382.21h474.172V91.963H0zm122.701 193.533l-10.909-78.189 26.475 16.631-44.561-35.262h42.829l4.333 45.991c.545 5.462.984 10.827 1.398 16.347 2.227-5.284 4.82-11.063 7.82-17.436l21.216-44.902h28.166l-49.95 96.819-26.817.001zm70.783 0l18.395-96.819h25.207l-18.371 96.819h-25.231zm67.825 1.374c-11.502 0-21.898-2.642-27.8-7.072l-1.731-1.317 8.519-21.012 2.853 1.707c5.723 3.422 13.03 5.422 20.053 5.422 5.365 0 11.665-2.081 11.665-7.885 0-3.032-1.764-5.698-10.779-10.356-9.559-5.162-20.476-12.851-20.476-26.71 0-19.094 15.965-32.441 38.814-32.441 9.348 0 16.834 1.634 22.849 4.95l2.13 1.171-8.055 21.581-2.878-1.577c-1.122-.626-7.21-3.707-15.103-3.707-8.112 0-11.559 3.528-11.559 6.787 0 3.495 4.463 6.267 11.843 10.388 13.128 6.893 19.533 15.591 19.533 26.556.001 20.046-16.012 33.515-39.878 33.515zm98.763-1.374l-1.886-23.646h-21.841l-10.835 23.646h-27.019l47.129-96.819h29.295l11.347 96.819h-26.19z" />
        <path d="M354.885 218.451c-1.008 2.593-2.04 5.056-3.056 7.234l-7.202 15.647h12.258l-1.512-16.558c-.122-1.868-.301-4.022-.488-6.323z" />
    </symbol>
    <symbol viewBox="0 0 96.124 96.123" id="fb" xmlns="http://www.w3.org/2000/svg">
        <path d="M72.089.02L59.624 0C45.62 0 36.57 9.285 36.57 23.656v10.907H24.037a1.96 1.96 0 0 0-1.96 1.961v15.803a1.96 1.96 0 0 0 1.96 1.96H36.57v39.876a1.96 1.96 0 0 0 1.96 1.96h16.352a1.96 1.96 0 0 0 1.96-1.96V54.287h14.654a1.96 1.96 0 0 0 1.96-1.96l.006-15.803a1.963 1.963 0 0 0-1.961-1.961H56.842v-9.246c0-4.444 1.059-6.7 6.848-6.7l8.397-.003a1.96 1.96 0 0 0 1.959-1.96V1.98A1.96 1.96 0 0 0 72.089.02z" />
    </symbol>
    <symbol viewBox="0 0 512 512" id="in" xmlns="http://www.w3.org/2000/svg">
        <path d="M75 512h362c41.355 0 75-33.645 75-75V75c0-41.355-33.645-75-75-75H75C33.645 0 0 33.645 0 75v362c0 41.355 33.645 75 75 75zM30 75c0-24.813 20.188-45 45-45h362c24.813 0 45 20.188 45 45v362c0 24.813-20.188 45-45 45H75c-24.813 0-45-20.188-45-45zm0 0" />
        <path d="M256 391c74.438 0 135-60.563 135-135s-60.563-135-135-135-135 60.563-135 135 60.563 135 135 135zm0-240c57.898 0 105 47.102 105 105s-47.102 105-105 105-105-47.102-105-105 47.102-105 105-105zm150 0c24.813 0 45-20.188 45-45s-20.188-45-45-45-45 20.188-45 45 20.188 45 45 45zm0-60c8.27 0 15 6.73 15 15s-6.73 15-15 15-15-6.73-15-15 6.73-15 15-15zm0 0" />
    </symbol>
    <symbol viewBox="0 0 478.2 478.2" id="like" xmlns="http://www.w3.org/2000/svg">
        <path d="M457.575 325.1c9.8-12.5 14.5-25.9 13.9-39.7-.6-15.2-7.4-27.1-13-34.4 6.5-16.2 9-41.7-12.7-61.5-15.9-14.5-42.9-21-80.3-19.2-26.3 1.2-48.3 6.1-49.2 6.3h-.1c-5 .9-10.3 2-15.7 3.2-.4-6.4.7-22.3 12.5-58.1 14-42.6 13.2-75.2-2.6-97-16.6-22.9-43.1-24.7-50.9-24.7-7.5 0-14.4 3.1-19.3 8.8-11.1 12.9-9.8 36.7-8.4 47.7-13.2 35.4-50.2 122.2-81.5 146.3-.6.4-1.1.9-1.6 1.4-9.2 9.7-15.4 20.2-19.6 29.4-5.9-3.2-12.6-5-19.8-5h-61c-23 0-41.6 18.7-41.6 41.6v162.5c0 23 18.7 41.6 41.6 41.6h61c8.9 0 17.2-2.8 24-7.6l23.5 2.8c3.6.5 67.6 8.6 133.3 7.3 11.9.9 23.1 1.4 33.5 1.4 17.9 0 33.5-1.4 46.5-4.2 30.6-6.5 51.5-19.5 62.1-38.6 8.1-14.6 8.1-29.1 6.8-38.3 19.9-18 23.4-37.9 22.7-51.9-.4-8.1-2.2-15-4.1-20.1zm-409.3 122.2c-8.1 0-14.6-6.6-14.6-14.6V270.1c0-8.1 6.6-14.6 14.6-14.6h61c8.1 0 14.6 6.6 14.6 14.6v162.5c0 8.1-6.6 14.6-14.6 14.6h-61v.1zm383.7-133.9c-4.2 4.4-5 11.1-1.8 16.3 0 .1 4.1 7.1 4.6 16.7.7 13.1-5.6 24.7-18.8 34.6-4.7 3.6-6.6 9.8-4.6 15.4 0 .1 4.3 13.3-2.7 25.8-6.7 12-21.6 20.6-44.2 25.4-18.1 3.9-42.7 4.6-72.9 2.2h-1.4c-64.3 1.4-129.3-7-130-7.1h-.1l-10.1-1.2c.6-2.8.9-5.8.9-8.8V270.1c0-4.3-.7-8.5-1.9-12.4 1.8-6.7 6.8-21.6 18.6-34.3 44.9-35.6 88.8-155.7 90.7-160.9.8-2.1 1-4.4.6-6.7-1.7-11.2-1.1-24.9 1.3-29 5.3.1 19.6 1.6 28.2 13.5 10.2 14.1 9.8 39.3-1.2 72.7-16.8 50.9-18.2 77.7-4.9 89.5 6.6 5.9 15.4 6.2 21.8 3.9 6.1-1.4 11.9-2.6 17.4-3.5.4-.1.9-.2 1.3-.3 30.7-6.7 85.7-10.8 104.8 6.6 16.2 14.8 4.7 34.4 3.4 36.5-3.7 5.6-2.6 12.9 2.4 17.4.1.1 10.6 10 11.1 23.3.4 8.9-3.8 18-12.5 27z" />
    </symbol>
    <symbol viewBox="0 -52 512 512" id="list" xmlns="http://www.w3.org/2000/svg">
        <path d="M0 0h113.293v113.293H0zm149.297 0H512v113.293H149.297zM0 147.008h113.293V260.3H0zm149.297 0H512V260.3H149.297zM0 294.012h113.293v113.297H0zm149.297 0H512v113.297H149.297zm0 0" />
    </symbol>
    <symbol id="logo" viewBox="0 0 225 55" xmlns="http://www.w3.org/2000/svg">
        <style>.ist0{fill-rule:evenodd;clip-rule:evenodd;fill:#121441}</style>
        <path class="ist0" d="M1.53 52.54h50.79V1.75H1.53v50.79zM34.09 5.63c8.98 2.94 15.46 11.45 15.49 21.51.02 9.89-6.33 18.38-15.49 21.52V5.63zm-7.17-1.15c1.62 0 3.35.22 4.79.5 0 11.51-11.13 20.98-22.62 20.98l-4.8-.01c.79-11.8 10.55-21.47 22.63-21.47zM9.1 28.36c11.48 0 22.61 9.46 22.61 20.96-1.44.29-3.25.51-4.79.51-12.09-.02-22.18-9.73-22.63-21.47H9.1zm60.23 3.25v-3.2H79.9v-4.08H69.32v-5.94h11.24v-4.07H65v17.11c0 4.33 1.84 7.28 6.17 7.89.09.02.17.04.25.04h.08c.44.05.9.08 1.37.08h8v-4.07H72.9c-1.38 0-3.57-.68-3.57-3.76zm14.61-5.42v13.26h4.33V14.31h-4.33zm16.74-5.5c-5.47 0-9.56 3.77-9.56 9.64v.15c0 5.72 3.95 9.42 9.67 9.42 2.75 0 5.33-.76 7.68-3.26l-2.61-2.54c-1.38 1.38-2.72 2.1-4.93 2.1-3.22 0-5.36-1.88-5.51-4.78h14.2c.07-.73.07-1.52.07-1.52.01-5.11-3.58-9.21-9.01-9.21zm-5.14 7.68c.18-2.21 2.43-3.98 5.14-3.98 2.54 0 4.6 1.81 4.6 3.98h-9.74zm26.32-3.8c1.96 0 3.4.73 4.64 1.99l2.68-2.79c-2.1-2.25-4.6-3.15-7.32-3.15-5.51 0-9.93 4.09-9.93 9.67s4.42 9.67 9.93 9.67c2.72 0 5.22-.91 7.32-3.15l-2.68-2.79c-1.23 1.27-2.68 1.99-4.64 1.99-3.19 0-5.62-2.43-5.62-5.72.01-3.29 2.43-5.72 5.62-5.72zm14.34 7.05l-.01-6.42h3.94v-3.93h-3.93v-6.96h-4.33v17.57h.01c.12 4.08 1.98 6.87 6.15 7.45.09.02.17.04.25.04h.08c.44.05.9.08 1.37.08h.46l.02-4.07h-.44c-1.37 0-3.57-.68-3.57-3.76zm11.87-7.65v-2.7h-4.29v18.18h4.29v-9.56c0-2.99 1.91-4.87 4.9-4.87.69 0 1.3.07 1.8.18v-4.18c-.18-.04-.83-.11-1.3-.11-2.59 0-4.54 1.19-5.4 3.06zm17.29-3.24c-5.52 0-9.92 4.18-9.92 9.63 0 5.44 4.4 9.63 9.92 9.63 5.48 0 9.92-4.19 9.92-9.63 0-5.45-4.44-9.63-9.92-9.63zm0 15.33c-3.21 0-5.63-2.49-5.63-5.7s2.42-5.7 5.63-5.7c3.17 0 5.63 2.49 5.63 5.7-.01 3.21-2.46 5.7-5.63 5.7zm12.58-10.31v13.7h4.33V14.31h-4.33zm19.94 6.08c0 2.89-1.69 4.11-3.97 4.11-2.27 0-3.97-1.23-3.97-4.08v-10.6h-4.36v10.97c0 5.19 3.79 7.68 8.3 7.68 4.55 0 8.37-2.52 8.37-7.79V21.26h-4.36l-.01 10.57zm20.74 1.8l-2.73-3.81 3.38-4.61 2.89-3.94h-4.72l-3.93 5.44-3.97-5.44h-4.69l2.69 3.68 3.59 4.9-3.76 5.24-3.13 4.36h4.65l4.62-6.43 4.61 6.43h4.65z" />
    </symbol>
    <symbol id="logo1" viewBox="0 0 700 100" xmlns="http://www.w3.org/2000/svg">
        <style>.jst0{fill:#fff}</style>
        <path class="jst0" d="M164.646 40.847c0-2.943 1.131-5.349 3.393-7.216 2.263-1.867 5.043-2.8 8.337-2.8h27.415c3.295 0 6.062.933 8.304 2.8 2.24 1.867 3.36 4.273 3.36 7.216v3.427c0 2.856-1.098 5.118-3.295 6.788s-4.987 2.504-8.369 2.504h-29.655v5.338c0 .615.187 1.131.56 1.549.373.417.89.626 1.549.626H214.4v6.062l-1.582 1.78h-36.443c-3.294 0-6.074-.934-8.337-2.801-2.262-1.867-3.393-4.273-3.393-7.216V40.847zm11.599-2.175c-.616 0-1.121.22-1.516.66a2.194 2.194 0 0 0-.593 1.515v5.47h29.787c.614 0 1.109-.198 1.482-.593.374-.396.56-.879.56-1.45v-3.427c0-.615-.186-1.131-.56-1.548-.373-.418-.868-.627-1.482-.627h-27.678zm56.017 30.248h-9.49V17.518h9.49V68.92zm8.566-28.073c0-2.944 1.132-5.35 3.394-7.217 2.263-1.867 5.042-2.8 8.337-2.8h27.415c3.295 0 6.062.933 8.303 2.8 2.241 1.868 3.361 4.273 3.361 7.217v3.426c0 2.856-1.098 5.118-3.295 6.788s-4.987 2.504-8.369 2.504h-29.656v5.338c0 .615.188 1.132.56 1.549.374.417.89.626 1.549.626h38.157v6.063l-1.582 1.78H252.56c-3.295 0-6.074-.935-8.337-2.802-2.262-1.867-3.394-4.272-3.394-7.216V40.847zm11.599-2.175c-.615 0-1.12.22-1.515.659-.396.44-.594.944-.594 1.516v5.47h29.788c.615 0 1.109-.198 1.482-.594.374-.396.56-.879.56-1.45v-3.426c0-.616-.186-1.132-.56-1.55-.373-.417-.867-.625-1.482-.625h-27.679zm57.468 0c-.616 0-1.121.22-1.516.659-.396.44-.593.944-.593 1.516v18.056c0 .615.186 1.132.56 1.549.373.417.889.626 1.549.626h34.993v6.063l-1.582 1.78h-33.28c-3.295 0-6.074-.935-8.337-2.802-2.262-1.867-3.393-4.272-3.393-7.216V40.847c0-2.944 1.131-5.35 3.393-7.217 2.263-1.867 5.042-2.8 8.337-2.8h33.28l1.582 1.779v6.063h-34.993zm50.678 1.186v19.045c0 .615.187 1.132.56 1.549.373.417.912.626 1.615.626h28.008v6.063l-1.582 1.78h-26.426c-3.34 0-6.107-.935-8.303-2.802-2.198-1.867-3.295-4.272-3.295-7.216V22.79h9.423v9.226h30.183v7.842h-30.183zm81.718-1.186h-32.687c-.615 0-1.12.22-1.515.659-.396.44-.593.944-.593 1.516V68.92h-9.49V30.83h8.237l.791 4.547c2.196-3.032 5.514-4.547 9.951-4.547h25.306v7.842zm57.269 20.231c0 2.944-1.109 5.35-3.328 7.216-2.218 1.867-4.975 2.801-8.27 2.801h-28.337c-3.34 0-6.13-.934-8.37-2.8-2.24-1.868-3.361-4.273-3.361-7.217V40.847c0-2.944 1.12-5.35 3.361-7.217 2.24-1.867 5.03-2.8 8.37-2.8h28.336c3.296 0 6.053.933 8.271 2.8s3.328 4.273 3.328 7.217v18.056zm-9.49-18.056c0-.616-.187-1.132-.56-1.55-.373-.417-.89-.625-1.549-.625h-28.469c-.615 0-1.12.22-1.515.659a2.2 2.2 0 0 0-.594 1.516v18.056c0 .615.188 1.132.56 1.549.374.417.89.626 1.55.626h28.468c.66 0 1.176-.209 1.55-.626.372-.417.56-.934.56-1.549V40.847zm29.92 28.073h-11.202V57.915h11.203V68.92zm11.83-20.594c2.219-1.691 5.02-2.537 8.402-2.537h28.996v-4.942c0-.616-.186-1.132-.56-1.55-.374-.417-.867-.625-1.483-.625H530.93v-6.063l1.582-1.78h34.597c3.296 0 6.053.934 8.271 2.801 2.218 1.868 3.328 4.273 3.328 7.217V68.92h-8.171l-.857-4.547c-2.197 3.031-5.514 4.547-9.952 4.547h-19.506c-3.295 0-6.073-.934-8.336-2.8-2.263-1.868-3.394-4.273-3.394-7.217v-3.69c0-2.9 1.11-5.195 3.328-6.887zm35.29 12.752c.615 0 1.12-.22 1.515-.659.396-.44.593-.945.593-1.516v-5.865H540.09c-.614 0-1.12.22-1.516.659-.394.44-.593.944-.593 1.516v3.69c0 .615.187 1.132.56 1.549.374.417.89.626 1.55.626h27.018zm64.847-30.248v9.621l-33.345 20.297h33.345v8.172h-46.394V59.3l33.28-20.3h-33.28v-8.17h46.394zm-496.445-4.668l-9.232-5.33c-.282.073-.575.362-1.2.935-4.538 4.15-9.071 8.304-13.607 12.457l-5.498 5.032c-.458.42-.917.838-1.37 1.264-.172.162-.419.313-.37.588.063.348.388.248.61.26.495.025.992.01 1.49.01 8.696 0 17.392 0 26.088.002.559 0 1.117.007 1.676.025.257.009.42.345.26.534-.323.378-.66.743-.996 1.108l-30.59 33.13-9.619 10.425 3.44 1.986 2.157 1.246a8.62 8.62 0 0 0 1.19.56 8.615 8.615 0 0 0 7.432-.56l28.14-16.246a8.621 8.621 0 0 0 4.31-7.467V33.63a8.621 8.621 0 0 0-4.31-7.467z" />
        <path class="jst0" d="M105.036 52.12a23.808 23.808 0 0 0-1.667-.078c-7.64-.005-15.28.004-22.92-.015-.722-.002-1.483.219-2.168-.216-.059-.93.718-1.374 1.203-1.95 7.273-8.654 14.569-17.289 21.867-25.922 3.315-3.921 6.64-7.833 9.965-11.746l-3.605-2.082-.338-.195a8.604 8.604 0 0 0-3.337-1.092 8.613 8.613 0 0 0-5.285 1.092L70.612 26.162a8.622 8.622 0 0 0-4.31 7.467V66.12a8.622 8.622 0 0 0 4.31 7.467L89.236 84.34c.5.176.643-.074 1.09-.99 4.851-9.929 9.695-19.86 14.539-29.792.163-.334.322-.675.426-1.03.044-.148-.01-.392-.255-.409z" />
    </symbol>
    <symbol viewBox="0 0 512 512" id="map" xmlns="http://www.w3.org/2000/svg">
        <path d="M256 0C153.755 0 70.573 83.182 70.573 185.426c0 126.888 165.939 313.167 173.004 321.035 6.636 7.391 18.222 7.378 24.846 0 7.065-7.868 173.004-194.147 173.004-321.035C441.425 83.182 358.244 0 256 0zm0 278.719c-51.442 0-93.292-41.851-93.292-93.293S204.559 92.134 256 92.134s93.291 41.851 93.291 93.293-41.85 93.292-93.291 93.292z" />
    </symbol>
    <symbol viewBox="0 0 459 459" id="menu" xmlns="http://www.w3.org/2000/svg">
        <path d="M0 382.5h459v-51H0v51zM0 255h459v-51H0v51zM0 76.5v51h459v-51H0z" />
    </symbol>
    <symbol viewBox="0 0 193.769 193.769" id="refund" xmlns="http://www.w3.org/2000/svg">
        <path d="M149.203 41.104l-9.348 12.009c20.15 15.679 30.201 41.063 26.234 66.253-2.906 18.484-12.838 34.73-27.964 45.748-15.131 11.012-33.64 15.488-52.124 12.567-38.157-6.008-64.32-41.938-58.322-80.098C30.585 79.097 40.52 62.85 55.648 51.835c13.208-9.615 28.991-14.233 45.086-13.317L87.579 52.319l9.759 9.313 20.766-21.801.005.008 9.303-9.769-9.752-9.303-.005.003L95.862 0l-9.31 9.769 14.2 13.525c-19.303-.913-38.21 4.702-54.059 16.242C28.28 52.943 16.19 72.717 12.65 95.221c-7.302 46.445 24.54 90.184 70.985 97.493a86.181 86.181 0 0 0 13.434 1.055c17.89 0 35.273-5.623 50.011-16.356 18.415-13.409 30.503-33.183 34.043-55.682 4.829-30.654-7.403-61.55-31.92-80.627z" />
        <path d="M105.24 151.971v-.003h.001v-8.757c10.383-1.159 20.485-7.718 20.485-20.17 0-16.919-15.732-18.859-27.223-20.274-7.347-.878-12.97-1.897-12.97-6.348 0-6.188 8.722-6.855 12.473-6.855 5.567 0 11.507 2.617 13.525 5.957l.586.971 11.542-5.341-.571-1.164c-4.301-8.793-12.009-11.337-17.85-12.364v-7.71H91.723v7.677c-12.582 1.856-20.054 8.839-20.054 18.829 0 16.29 14.791 17.943 25.582 19.153 9.617 1.134 14.094 3.51 14.094 7.469 0 7.563-10.474 8.154-13.685 8.154-7.147 0-14.038-3.566-16.031-8.301l-.495-1.169-12.539 5.316.5 1.169c3.713 8.691 11.725 14.137 22.63 15.425v8.336h13.515z" />
    </symbol>
    <symbol viewBox="0 0 56.966 56.966" id="search" xmlns="http://www.w3.org/2000/svg">
        <path d="M55.146 51.887L41.588 37.786A22.926 22.926 0 0 0 46.984 23c0-12.682-10.318-23-23-23s-23 10.318-23 23 10.318 23 23 23c4.761 0 9.298-1.436 13.177-4.162l13.661 14.208c.571.593 1.339.92 2.162.92.779 0 1.518-.297 2.079-.837a3.004 3.004 0 0 0 .083-4.242zM23.984 6c9.374 0 17 7.626 17 17s-7.626 17-17 17-17-7.626-17-17 7.626-17 17-17z" />
    </symbol>
    <symbol viewBox="-42 0 512 512.001" id="user" xmlns="http://www.w3.org/2000/svg">
        <path d="M210.352 246.633c33.882 0 63.218-12.153 87.195-36.13 23.969-23.972 36.125-53.304 36.125-87.19 0-33.876-12.152-63.211-36.129-87.192C273.566 12.152 244.23 0 210.352 0c-33.887 0-63.22 12.152-87.192 36.125s-36.129 53.309-36.129 87.188c0 33.886 12.156 63.222 36.13 87.195 23.98 23.969 53.316 36.125 87.19 36.125zM144.379 57.34c18.394-18.395 39.973-27.336 65.973-27.336 25.996 0 47.578 8.941 65.976 27.336 18.395 18.398 27.34 39.98 27.34 65.972 0 26-8.945 47.579-27.34 65.977-18.398 18.399-39.98 27.34-65.976 27.34-25.993 0-47.57-8.945-65.973-27.34-18.399-18.394-27.344-39.976-27.344-65.976 0-25.993 8.945-47.575 27.344-65.973zm281.75 336.363c-.692-9.976-2.09-20.86-4.149-32.351-2.078-11.579-4.753-22.524-7.957-32.528-3.312-10.34-7.808-20.55-13.375-30.336-5.77-10.156-12.55-19-20.16-26.277-7.957-7.613-17.699-13.734-28.965-18.2-11.226-4.44-23.668-6.69-36.976-6.69-5.227 0-10.281 2.144-20.043 8.5a2711.03 2711.03 0 0 1-20.879 13.46c-6.707 4.274-15.793 8.278-27.016 11.903-10.949 3.543-22.066 5.34-33.043 5.34-10.968 0-22.086-1.797-33.043-5.34-11.21-3.622-20.3-7.625-26.996-11.899a2853.13 2853.13 0 0 1-20.898-13.469c-9.754-6.355-14.809-8.5-20.035-8.5-13.313 0-25.75 2.254-36.973 6.7-11.258 4.457-21.004 10.578-28.969 18.199-7.609 7.281-14.39 16.12-20.156 26.273-5.558 9.785-10.058 19.992-13.371 30.34-3.2 10.004-5.875 20.945-7.953 32.524-2.063 11.476-3.457 22.363-4.149 32.363C.343 403.492 0 413.668 0 423.949c0 26.727 8.496 48.363 25.25 64.32C41.797 504.017 63.688 512 90.316 512h246.532c26.62 0 48.511-7.984 65.062-23.73 16.758-15.946 25.254-37.59 25.254-64.325-.004-10.316-.351-20.492-1.035-30.242zm-44.906 72.828c-10.934 10.406-25.45 15.465-44.38 15.465H90.317c-18.933 0-33.449-5.059-44.379-15.46-10.722-10.208-15.933-24.141-15.933-42.587 0-9.594.316-19.066.95-28.16.616-8.922 1.878-18.723 3.75-29.137 1.847-10.285 4.198-19.937 6.995-28.675 2.684-8.38 6.344-16.676 10.883-24.668 4.332-7.618 9.316-14.153 14.816-19.418 5.145-4.926 11.63-8.957 19.27-11.98 7.066-2.798 15.008-4.329 23.629-4.56 1.05.56 2.922 1.626 5.953 3.602 6.168 4.02 13.277 8.606 21.137 13.625 8.86 5.649 20.273 10.75 33.91 15.152 13.941 4.508 28.16 6.797 42.273 6.797 14.114 0 28.336-2.289 42.27-6.793 13.648-4.41 25.058-9.507 33.93-15.164 8.043-5.14 14.953-9.593 21.12-13.617 3.032-1.973 4.903-3.043 5.954-3.601 8.625.23 16.566 1.761 23.636 4.558 7.637 3.024 14.122 7.059 19.266 11.98 5.5 5.262 10.484 11.798 14.816 19.423 4.543 7.988 8.208 16.289 10.887 24.66 2.801 8.75 5.156 18.398 7 28.675 1.867 10.434 3.133 20.239 3.75 29.145v.008c.637 9.058.957 18.527.961 28.148-.004 18.45-5.215 32.38-15.937 42.582zm0 0" />
    </symbol>
    <symbol viewBox="0 0 511.627 511.627" id="yt" xmlns="http://www.w3.org/2000/svg">
        <path d="M459.954 264.376c-2.471-11.233-7.949-20.653-16.416-28.264-8.474-7.611-18.227-12.085-29.27-13.418-35.02-3.806-87.837-5.708-158.457-5.708-70.618 0-123.341 1.903-158.174 5.708-11.227 1.333-21.029 5.807-29.407 13.418-8.376 7.614-13.896 17.035-16.562 28.264-4.948 22.083-7.423 55.391-7.423 99.931 0 45.299 2.475 78.61 7.423 99.93 2.478 11.225 7.951 20.653 16.421 28.261 8.47 7.614 18.225 11.991 29.263 13.134 35.026 3.997 87.847 5.996 158.461 5.996 70.609 0 123.44-1.999 158.453-5.996 11.043-1.143 20.748-5.52 29.126-13.134 8.377-7.607 13.897-17.036 16.56-28.261 4.948-22.083 7.426-55.391 7.426-99.93-.001-45.3-2.479-78.612-7.424-99.931zm-294.929 28.842h-30.549v162.45h-28.549v-162.45h-29.98v-26.837h89.079v26.837zm77.085 162.45H216.7v-15.421c-10.278 11.615-19.989 17.419-29.125 17.419-8.754 0-14.275-3.524-16.556-10.564-1.521-4.568-2.286-11.519-2.286-20.844V314.627h25.41v103.924c0 6.088.096 9.421.288 9.993.571 3.997 2.568 5.995 5.996 5.995 5.138 0 10.566-3.997 16.274-11.991V314.627h25.41v141.041zm97.073-42.257c0 13.894-.855 23.417-2.56 28.558-3.244 10.462-9.996 15.697-20.273 15.697-9.137 0-17.986-5.235-26.556-15.697v13.702h-25.406v-189.29h25.406v61.955c8.189-10.273 17.036-15.413 26.556-15.413 10.277 0 17.029 5.331 20.273 15.988 1.704 4.948 2.56 14.369 2.56 28.264v56.236zm96.502-23.408h-51.104v24.839c0 13.134 4.374 19.697 13.131 19.697 6.279 0 10.089-3.422 11.42-10.28.376-1.902.571-7.706.571-17.412h25.981v3.71c0 9.329-.195 14.846-.572 16.563-.567 5.133-2.56 10.273-5.995 15.413-6.852 10.089-17.139 15.133-30.841 15.133-13.127 0-23.407-4.855-30.833-14.558-5.517-7.043-8.275-18.083-8.275-33.12v-49.396c0-15.036 2.662-26.076 7.987-33.119 7.427-9.705 17.61-14.558 30.557-14.558 12.755 0 22.85 4.853 30.263 14.558 5.146 7.043 7.71 18.083 7.71 33.119v29.411z" />
        <path d="M302.634 336.043c-4.38 0-8.658 2.101-12.847 6.283v85.934c4.188 4.186 8.467 6.279 12.847 6.279 7.419 0 11.14-6.372 11.14-19.13v-60.236c-.001-12.755-3.713-19.13-11.14-19.13zm94.794 0c-8.565 0-12.847 6.475-12.847 19.41v13.134h25.693v-13.134c0-12.942-4.284-19.41-12.846-19.41zM148.473 113.917v77.375h28.549v-77.375L211.563 0h-29.121l-19.41 75.089L142.759 0h-30.262c5.33 15.99 11.516 33.785 18.559 53.391 8.947 26.265 14.749 46.444 17.417 60.526zm101.347 79.374c13.134 0 23.219-4.854 30.262-14.561 5.332-7.043 7.994-18.274 7.994-33.689V95.075c0-15.225-2.669-26.363-7.994-33.406-7.043-9.707-17.128-14.561-30.262-14.561-12.756 0-22.75 4.854-29.98 14.561-5.327 7.043-7.992 18.181-7.992 33.406v49.965c0 15.225 2.662 26.457 7.992 33.689 7.233 9.708 17.223 14.562 29.98 14.562zM237.541 89.935c0-13.134 4.093-19.701 12.279-19.701s12.275 6.567 12.275 19.701v59.955c0 13.328-4.089 19.985-12.275 19.985s-12.279-6.661-12.279-19.985V89.935zm90.787 103.356c9.523 0 19.328-5.901 29.413-17.705v15.703h25.981V48.822h-25.981v108.777c-5.712 8.186-11.133 12.275-16.279 12.275-3.429 0-5.428-2.093-5.996-6.28-.191-.381-.287-3.715-.287-9.994V48.822h-25.981v112.492c0 9.705.767 16.84 2.286 21.411 2.477 7.043 8.09 10.566 16.844 10.566z" />
    </symbol>
</svg>