<svg id="Layer_1" xmlns="http://www.w3.org/2000/svg" viewBox="0 0 700 100"><style>.st0{fill:#fff}</style><path class="st0" d="M164.646 40.847c0-2.943 1.131-5.349 3.393-7.216 2.263-1.867 5.043-2.8 8.337-2.8h27.415c3.295 0 6.062.933 8.304 2.8 2.24 1.867 3.36 4.273 3.36 7.216v3.427c0 2.856-1.098 5.118-3.295 6.788s-4.987 2.504-8.369 2.504h-29.655v5.338c0 .615.187 1.131.56 1.549.373.417.89.626 1.549.626H214.4v6.062l-1.582 1.78h-36.443c-3.294 0-6.074-.934-8.337-2.801-2.262-1.867-3.393-4.273-3.393-7.216V40.847zm11.599-2.175c-.616 0-1.121.22-1.516.66-.396.439-.593.944-.593 1.515v5.47h29.787c.614 0 1.109-.198 1.482-.593.374-.396.56-.879.56-1.45v-3.427c0-.615-.186-1.131-.56-1.548-.373-.418-.868-.627-1.482-.627h-27.678zM232.262 68.92h-9.49V17.518h9.49V68.92zM240.828 40.847c0-2.944 1.132-5.35 3.394-7.217 2.263-1.867 5.042-2.8 8.337-2.8h27.415c3.295 0 6.062.933 8.303 2.8 2.241 1.868 3.361 4.273 3.361 7.217v3.426c0 2.856-1.098 5.118-3.295 6.788s-4.987 2.504-8.369 2.504h-29.656v5.338c0 .615.188 1.132.56 1.549.374.417.89.626 1.549.626h38.157v6.063l-1.582 1.78H252.56c-3.295 0-6.074-.935-8.337-2.802-2.262-1.867-3.394-4.272-3.394-7.216V40.847zm11.599-2.175c-.615 0-1.12.22-1.515.659-.396.44-.594.944-.594 1.516v5.47h29.788c.615 0 1.109-.198 1.482-.594.374-.396.56-.879.56-1.45v-3.426c0-.616-.186-1.132-.56-1.55-.373-.417-.867-.625-1.482-.625h-27.679zM309.895 38.672c-.616 0-1.121.22-1.516.659-.396.44-.593.944-.593 1.516v18.056c0 .615.186 1.132.56 1.549.373.417.889.626 1.549.626h34.993v6.063l-1.582 1.78h-33.28c-3.295 0-6.074-.935-8.337-2.802-2.262-1.867-3.393-4.272-3.393-7.216V40.847c0-2.944 1.131-5.35 3.393-7.217 2.263-1.867 5.042-2.8 8.337-2.8h33.28l1.582 1.779v6.063h-34.993zM360.573 39.858v19.045c0 .615.187 1.132.56 1.549.373.417.912.626 1.615.626h28.008v6.063l-1.582 1.78h-26.426c-3.34 0-6.107-.935-8.303-2.802-2.198-1.867-3.295-4.272-3.295-7.216V22.79h9.423v9.226h30.183v7.842h-30.183zM442.291 38.672h-32.687c-.615 0-1.12.22-1.515.659-.396.44-.593.944-.593 1.516V68.92h-9.49V30.83h8.237l.791 4.547c2.196-3.032 5.514-4.547 9.951-4.547h25.306v7.842zM499.56 58.903c0 2.944-1.109 5.35-3.328 7.216-2.218 1.867-4.975 2.801-8.27 2.801h-28.337c-3.34 0-6.13-.934-8.37-2.8-2.24-1.868-3.361-4.273-3.361-7.217V40.847c0-2.944 1.12-5.35 3.361-7.217 2.24-1.867 5.03-2.8 8.37-2.8h28.336c3.296 0 6.053.933 8.271 2.8s3.328 4.273 3.328 7.217v18.056zm-9.49-18.056c0-.616-.187-1.132-.56-1.55-.373-.417-.89-.625-1.549-.625h-28.469c-.615 0-1.12.22-1.515.659a2.2 2.2 0 0 0-.594 1.516v18.056c0 .615.188 1.132.56 1.549.374.417.89.626 1.55.626h28.468c.66 0 1.176-.209 1.55-.626.372-.417.56-.934.56-1.549V40.847zM519.99 68.92h-11.202V57.915h11.203V68.92zM531.82 48.326c2.219-1.691 5.02-2.537 8.402-2.537h28.996v-4.942c0-.616-.186-1.132-.56-1.55-.374-.417-.867-.625-1.483-.625H530.93v-6.063l1.582-1.78h34.597c3.296 0 6.053.934 8.271 2.801 2.218 1.868 3.328 4.273 3.328 7.217V68.92h-8.171l-.857-4.547c-2.197 3.031-5.514 4.547-9.952 4.547h-19.506c-3.295 0-6.073-.934-8.336-2.8-2.263-1.868-3.394-4.273-3.394-7.217v-3.69c0-2.9 1.11-5.195 3.328-6.887zm35.29 12.752c.615 0 1.12-.22 1.515-.659.396-.44.593-.945.593-1.516v-5.865H540.09c-.614 0-1.12.22-1.516.659-.394.44-.593.944-.593 1.516v3.69c0 .615.187 1.132.56 1.549.374.417.89.626 1.55.626h27.018zM631.957 30.83v9.621l-33.345 20.297h33.345v8.172h-46.394V59.3L618.843 39h-33.28V30.83h46.394zM135.512 26.162l-9.232-5.33c-.282.073-.575.362-1.2.935-4.538 4.15-9.071 8.304-13.607 12.457l-5.498 5.032c-.458.42-.917.838-1.37 1.264-.172.162-.419.313-.37.588.063.348.388.248.61.26.495.025.992.01 1.49.01 8.696 0 17.392 0 26.088.002.559 0 1.117.007 1.676.025.257.009.42.345.26.534-.323.378-.66.743-.996 1.108l-30.59 33.13-9.619 10.425 3.44 1.986 2.157 1.246a8.62 8.62 0 0 0 1.19.56 8.615 8.615 0 0 0 7.432-.56l28.14-16.246a8.621 8.621 0 0 0 4.31-7.467V33.63a8.621 8.621 0 0 0-4.31-7.467z"/><path class="st0" d="M105.036 52.12c-.555-.039-1.111-.078-1.667-.078-7.64-.005-15.28.004-22.92-.015-.722-.002-1.483.219-2.168-.216-.059-.93.718-1.374 1.203-1.95 7.273-8.654 14.569-17.289 21.867-25.922 3.315-3.921 6.64-7.833 9.965-11.746l-3.605-2.082-.338-.195a8.604 8.604 0 0 0-3.337-1.092 8.613 8.613 0 0 0-5.285 1.092L70.612 26.162a8.622 8.622 0 0 0-4.31 7.467V66.12a8.622 8.622 0 0 0 4.31 7.467L89.236 84.34c.5.176.643-.074 1.09-.99 4.851-9.929 9.695-19.86 14.539-29.792.163-.334.322-.675.426-1.03.044-.148-.01-.392-.255-.409z"/></svg>